<?xml version="1.0" encoding="utf-8"?>

<svg version="1.1" xmlns="http://www.w3.org/2000/svg" >
<g>
	<g>
		<path fill="#FFFFFF" stroke="#000000" stroke-miterlimit="10" d="M349.42,269.508h-28.012c-1.698,0-2.83-1.079-2.83-2.697v-47.202
			c0-1.618,1.132-2.697,2.83-2.697h28.012c1.698,0,2.829,1.079,2.829,2.697v47.202C352.25,268.159,351.118,269.508,349.42,269.508z
			 M324.237,264.113h22.353v-41.808h-22.353V264.113z"/>
	</g>
	<g>
		<path fill="#FFFFFF" stroke="#000000" stroke-miterlimit="10" d="M335.273,240.108c-1.698,0-2.83-1.079-2.83-2.697v-7.552
			c0-1.618,1.132-2.697,2.83-2.697s2.829,1.079,2.829,2.697v7.552C338.102,239.029,336.97,240.108,335.273,240.108z"/>
	</g>
	<g>
		<path fill="#FFFFFF" stroke="#000000" stroke-miterlimit="10" d="M335.556,167.821h-75.831c-6.225,0-11.318-4.855-11.318-10.789
			v-42.077c0-5.934,5.093-10.789,11.318-10.789h75.831c6.225,0,11.318,4.855,11.318,10.789v42.077
			C346.874,163.236,341.78,167.821,335.556,167.821z M259.724,109.56c-3.112,0-5.659,2.428-5.659,5.395v42.077
			c0,2.967,2.547,5.395,5.659,5.395h75.831c3.112,0,5.659-2.428,5.659-5.395v-42.077c0-2.967-2.547-5.395-5.659-5.395
			C335.555,109.56,259.724,109.56,259.724,109.56z"/>
	</g>
	<path fill="#FFFFFF" stroke="#000000" stroke-miterlimit="10" d="M363.851,99.31c1.698,0,2.829-1.079,2.829-2.697V69.101
		c0-1.618-1.132-2.697-2.829-2.697H231.429c-1.698,0-2.83,1.079-2.83,2.697v27.512c0,1.618,1.132,2.697,2.83,2.697h4.244v81.997
		l-7.074,21.039c0,0.27,0,0.539,0,0.809V307c0,1.618,1.132,2.697,2.83,2.697H363.85c1.698,0,2.829-1.079,2.829-2.697V203.155
		c0-0.27,0-0.539,0-0.809l-7.074-21.039V99.31H363.851z M361.021,304.303H234.259v-96.832h126.762V304.303z M360.455,202.076
		h-125.63l5.376-16.723h50.365c1.132,1.349,2.547,2.158,4.244,2.697v5.395h-0.849c-1.698,0-2.83,1.079-2.83,2.697
		c0,1.618,1.132,2.697,2.83,2.697h7.357c1.698,0,2.829-1.079,2.829-2.697c0-1.618-1.132-2.697-2.829-2.697h-0.849v-5.395
		c1.698-0.539,3.112-1.618,4.244-2.697l0,0h50.082L360.455,202.076z M353.664,180.228h-46.97c0-4.855-3.961-8.631-9.054-8.631
		s-9.054,3.776-9.054,8.631h-47.253V99.31h112.615L353.664,180.228L353.664,180.228z M301.035,180.228
		c0,1.888-1.415,3.237-3.395,3.237l0,0l0,0c-1.698,0-3.395-1.349-3.395-3.237s1.415-3.237,3.395-3.237
		C299.621,176.992,301.035,178.34,301.035,180.228z M234.259,93.916V71.798h126.762v22.118H234.259z"/>
	<g>
		<ellipse fill="#FFFFFF" stroke="#000000" stroke-miterlimit="10" cx="335.273" cy="253.055" rx="5.093" ry="4.855"/>
	</g>
	<g>
		<path fill="#FFFFFF" stroke="#000000" stroke-miterlimit="10" d="M246.762,74.336c1.342-0.26,3.371-0.425,5.37-0.425
			c1.909,0,3.878,0.236,5.28,0.92c1.313,0.614,2.237,1.629,2.237,3.116c0,2.361-1.999,3.824-4.564,4.485v0.094
			c1.193,0.401,1.7,1.463,1.909,2.903c0.239,1.771,0.417,3.848,0.775,4.509h-4.415c-0.179-0.425-0.388-1.794-0.596-3.753
			c-0.179-1.936-1.015-2.525-2.715-2.525h-1.313l-1.492,6.279h-4.266L246.762,74.336z M249.357,81.111h1.79
			c2.327,0,4.027-1.109,4.027-2.667c0-1.275-1.372-1.841-3.073-1.841c-0.805,0-1.313,0.047-1.67,0.118L249.357,81.111z"/>
		<path fill="#FFFFFF" stroke="#000000" stroke-miterlimit="10" d="M272.063,89.278c-1.701,0.685-3.818,0.897-5.429,0.897
			c-4.177,0-6.324-1.865-6.324-4.862c0-3.518,3.222-7.176,8.501-7.176c2.954,0,5.071,1.298,5.071,3.446
			c0,2.951-3.609,4.013-9.456,3.895c0,0.331,0.149,0.85,0.447,1.18c0.567,0.59,1.551,0.897,2.804,0.897
			c1.581,0,2.923-0.283,4.087-0.731L272.063,89.278z M268.275,80.615c-1.999,0-3.132,1.298-3.431,2.384
			c3.341,0.023,5.012-0.354,5.012-1.393C269.856,81.016,269.259,80.615,268.275,80.615z"/>
		<path fill="#FFFFFF" stroke="#000000" stroke-miterlimit="10" d="M283.074,75.162l-0.775,3.234h3.102l-0.626,2.573h-3.103
			l-0.984,3.918c-0.12,0.472-0.239,1.063-0.239,1.464c0,0.566,0.298,0.968,1.223,0.968c0.388,0,0.805,0,1.193-0.047l-0.507,2.667
			c-0.537,0.165-1.611,0.26-2.536,0.26c-2.565,0-3.789-1.039-3.789-2.479c0-0.638,0.089-1.275,0.298-2.148l1.134-4.603h-1.85
			l0.597-2.573h1.879l0.596-2.432L283.074,75.162z"/>
		<path fill="#FFFFFF" stroke="#000000" stroke-miterlimit="10" d="M285.195,89.939l1.641-6.869
			c0.418-1.747,0.597-3.683,0.746-4.674h3.729c-0.089,0.779-0.179,1.558-0.268,2.36h0.089c1.014-1.534,2.655-2.62,4.653-2.62
			c0.269,0,0.537,0,0.806,0.023l-0.835,3.305c-0.208-0.024-0.447-0.024-0.686-0.024c-2.744,0-4.027,1.936-4.564,4.202l-1.014,4.296
			h-4.297V89.939z"/>
		<path fill="#FFFFFF" stroke="#000000" stroke-miterlimit="10" d="M311.627,82.881c0,4.226-3.639,7.318-8.71,7.318
			c-3.699,0-6.175-1.912-6.175-4.769c0-4.013,3.52-7.294,8.71-7.294C309.361,78.136,311.627,80.261,311.627,82.881z M301.187,85.36
			c0,1.346,0.835,2.243,2.327,2.243c2.356,0,3.669-2.715,3.669-4.697c0-1.063-0.567-2.195-2.297-2.195
			C302.41,80.71,301.157,83.566,301.187,85.36z"/>
		<path fill="#FFFFFF" stroke="#000000" stroke-miterlimit="10" d="M316.823,74.336c1.282-0.26,3.311-0.425,5.25-0.425
			c1.79,0,3.878,0.236,5.34,1.062c1.343,0.732,2.178,1.841,2.178,3.375c0,2.006-1.164,3.517-2.745,4.485
			c-1.641,1.015-3.967,1.463-6.413,1.463c-0.716,0-1.313-0.047-1.76-0.095l-1.372,5.736h-4.207L316.823,74.336z M319.328,81.441
			c0.447,0.071,0.925,0.118,1.641,0.118c2.595,0,4.296-1.322,4.296-2.903c0-1.535-1.402-2.03-3.073-2.03
			c-0.806,0-1.372,0.047-1.73,0.118L319.328,81.441z"/>
		<path fill="#FFFFFF" stroke="#000000" stroke-miterlimit="10" d="M329.504,89.939l2.774-11.543h4.296L333.8,89.939H329.504z
			 M332.875,75.304c0.029-1.157,1.163-1.936,2.476-1.936c1.253,0,2.148,0.661,2.148,1.676c0,1.204-1.164,1.912-2.536,1.912
			C333.77,76.956,332.875,76.319,332.875,75.304z"/>
		<path fill="#FFFFFF" stroke="#000000" stroke-miterlimit="10" d="M349.613,89.278c-1.7,0.685-3.818,0.897-5.43,0.897
			c-4.176,0-6.324-1.865-6.324-4.862c0-3.518,3.222-7.176,8.502-7.176c2.953,0,5.071,1.298,5.071,3.446
			c0,2.951-3.609,4.013-9.456,3.895c0,0.331,0.149,0.85,0.447,1.18c0.566,0.59,1.551,0.897,2.804,0.897
			c1.581,0,2.924-0.283,4.087-0.731L349.613,89.278z M345.824,80.615c-1.998,0-3.132,1.298-3.431,2.384
			c3.342,0.023,5.012-0.354,5.012-1.393C347.405,81.016,346.808,80.615,345.824,80.615z"/>
	</g>
</g>
<g>
	<g>
		<path fill="#FFFFFF" stroke="#000000" stroke-miterlimit="10" d="M328.628,321.942c0.087,0.161,0.059,0.283,0.059,0.4c0.001,14.285,0.001,28.57,0.002,42.856
			c0,0.349-0.002,0.7-0.161,1.018c-0.106,0.213-0.245,0.437-0.519,0.434c-0.251-0.002-0.353-0.223-0.453-0.417
			c-0.168-0.327-0.2-0.68-0.2-1.043c0.002-6.942,0.002-13.884,0.002-20.826c0-5.38,0-10.76-0.002-16.14
			c0-0.124,0.035-0.254-0.058-0.422c-6.882,13.767-13.747,27.502-20.612,41.236c-0.023-0.006-0.045-0.012-0.068-0.018
			c0-15.671,0-31.342,0-47.014c0.074-0.028,0.094,0.03,0.116,0.075c1.172,2.406,2.457,4.754,3.648,7.149
			c0.41,0.824,0.835,1.64,1.249,2.462c0.663,1.316,1.361,2.613,2.033,3.924c0.43,0.838,0.831,1.691,1.26,2.529
			c0.848,1.66,1.705,3.315,2.56,4.971c0.034,0.065,0.052,0.158,0.14,0.167c0.113,0.011,0.131-0.099,0.168-0.171
			c0.392-0.761,0.779-1.525,1.17-2.287c0.51-0.992,1.046-1.971,1.53-2.976c0.87-1.806,1.832-3.564,2.723-5.36
			c0.779-1.572,1.566-3.141,2.391-4.689c1.004-1.884,1.91-3.816,2.916-5.699C328.544,322.059,328.577,322.018,328.628,321.942z
			 M307.93,362.746c0.018,0.002,0.036,0.003,0.055,0.005c0.067-0.158,0.126-0.321,0.203-0.474c0.618-1.228,1.254-2.447,1.856-3.683
			c0.413-0.847,0.86-1.675,1.26-2.529c0.611-1.303,1.293-2.572,1.934-3.861c0.415-0.833,0.826-1.669,1.246-2.5
			c0.702-1.392,1.388-2.792,2.097-4.18c0.099-0.194,0.093-0.361-0.009-0.551c-0.498-0.925-0.953-1.871-1.417-2.813
			c-0.876-1.777-1.82-3.521-2.673-5.308c-0.602-1.261-1.258-2.493-1.861-3.752c-0.832-1.738-1.72-3.449-2.584-5.171
			c-0.018-0.037-0.034-0.082-0.106-0.069C307.93,339.486,307.93,351.116,307.93,362.746z"/>
		<path fill="#FFFFFF" stroke="#000000" stroke-miterlimit="10" d="M228.813,345.623c-0.002-3.571,0.335-6.741,1.103-9.862c0.413-1.676,0.933-3.32,1.631-4.898
			c0.477-1.079,1.02-2.133,1.674-3.118c0.757-1.139,1.63-2.193,2.697-3.055c0.868-0.701,1.826-1.284,2.921-1.556
			c0.938-0.232,1.891-0.246,2.855-0.06c1.034,0.199,1.918,0.675,2.769,1.264c1.101,0.762,1.973,1.741,2.757,2.809
			c1.11,1.512,1.919,3.182,2.593,4.927c0.844,2.185,1.402,4.442,1.771,6.747c0.243,1.519,0.381,3.05,0.441,4.59
			c0.04,1.03,0.065,2.059,0.033,3.088c-0.112,3.691-0.654,7.314-1.823,10.827c-0.728,2.19-1.679,4.277-3.046,6.15
			c-0.958,1.313-2.096,2.451-3.508,3.277c-0.518,0.303-1.116,0.442-1.684,0.643c-0.448,0.158-0.914,0.118-1.369,0.209
			c-0.48,0.096-0.979-0.082-1.468-0.147c-0.567-0.076-1.097-0.315-1.62-0.534c-0.682-0.285-1.256-0.754-1.812-1.238
			c-2.014-1.757-3.322-3.988-4.346-6.419c-1.226-2.911-1.918-5.954-2.294-9.075C228.891,348.556,228.798,346.911,228.813,345.623z
			 M250.744,345.112c-0.008-0.936-0.049-2.063-0.149-3.185c-0.155-1.728-0.439-3.436-0.861-5.123
			c-0.515-2.059-1.215-4.045-2.24-5.906c-0.718-1.304-1.561-2.516-2.688-3.512c-0.659-0.582-1.325-1.144-2.175-1.433
			c-0.695-0.236-1.388-0.465-2.14-0.426c-0.409,0.021-0.811,0.016-1.219,0.119c-0.641,0.162-1.265,0.354-1.831,0.694
			c-1.284,0.773-2.284,1.847-3.135,3.061c-1.033,1.473-1.803,3.086-2.386,4.781c-1.398,4.066-1.913,8.257-1.736,12.547
			c0.087,2.117,0.318,4.21,0.788,6.277c0.641,2.819,1.577,5.515,3.203,7.936c0.904,1.346,1.973,2.517,3.397,3.328
			c1.576,0.898,3.218,1.033,4.915,0.392c1.475-0.557,2.589-1.603,3.549-2.798c0.889-1.106,1.598-2.334,2.177-3.641
			c0.807-1.823,1.39-3.713,1.802-5.657C250.524,350.176,250.72,347.748,250.744,345.112z"/>
		<path fill="#FFFFFF" stroke="#000000" stroke-miterlimit="10" d="M271.136,334.495c-0.02,1.235,0.175,2.544,0.68,3.802c0.503,1.252,1.261,2.33,2.296,3.18
			c0.955,0.784,2.024,1.467,3.223,1.749c1.416,0.332,2.663,0.991,3.927,1.638c0.589,0.302,1.077,0.76,1.564,1.206
			c1.909,1.748,2.937,3.956,3.361,6.474c0.425,2.526,0.308,5.034-0.326,7.512c-0.468,1.831-1.261,3.515-2.534,4.927
			c-0.695,0.771-1.484,1.485-2.447,1.897c-0.783,0.335-1.604,0.57-2.481,0.673c-1.271,0.149-2.403-0.209-3.527-0.659
			c-0.455-0.182-0.843-0.52-1.235-0.829c-1.15-0.905-2.054-2.012-2.735-3.301c-1.028-1.946-1.603-4.016-1.676-6.221
			c-0.011-0.337,0.079-0.645,0.272-0.919c0.215-0.306,0.472-0.319,0.727-0.045c0.227,0.244,0.304,0.551,0.325,0.867
			c0.125,1.912,0.697,3.682,1.727,5.291c0.95,1.484,2.251,2.576,3.941,3.111c0.922,0.292,1.894,0.274,2.851,0.067
			c1.623-0.352,2.886-1.239,3.903-2.537c1.03-1.315,1.601-2.816,1.895-4.434c0.332-1.833,0.335-3.667-0.134-5.481
			c-0.431-1.669-1.285-3.101-2.57-4.247c-0.792-0.706-1.683-1.297-2.667-1.702c-0.905-0.372-1.851-0.642-2.763-0.998
			c-1.211-0.473-2.343-1.071-3.339-1.941c-1.467-1.281-2.406-2.867-2.99-4.7c-0.634-1.99-0.663-4.028-0.535-6.083
			c0.105-1.674,0.516-3.275,1.184-4.806c0.574-1.315,1.374-2.49,2.477-3.417c0.788-0.662,1.678-1.203,2.692-1.439
			c1.902-0.443,3.639-0.088,5.225,1.104c2.043,1.536,3.129,3.65,3.814,6.029c0.271,0.94,0.417,1.904,0.488,2.88
			c0.028,0.378-0.041,0.736-0.231,1.063c-0.239,0.412-0.618,0.419-0.859,0.007c-0.148-0.253-0.238-0.533-0.253-0.833
			c-0.07-1.433-0.486-2.777-1.13-4.042c-0.632-1.244-1.537-2.276-2.719-3.035c-0.499-0.32-1.068-0.494-1.642-0.654
			c-0.429-0.119-0.854-0.107-1.284-0.118c-0.727-0.02-1.405,0.181-2.066,0.452c-1.899,0.779-2.963,2.312-3.69,4.133
			C271.327,331.483,271.128,332.917,271.136,334.495z"/>
		<path fill="#FFFFFF" stroke="#000000" stroke-miterlimit="10" d="M346.234,345.24c0.012-3.187,0.327-6.34,1.094-9.439c0.535-2.164,1.256-4.259,2.277-6.247
			c0.601-1.17,1.295-2.283,2.146-3.283c0.944-1.109,2.027-2.062,3.355-2.712c1.177-0.576,2.428-0.723,3.695-0.56
			c1.1,0.141,2.086,0.634,3.009,1.27c1.234,0.851,2.177,1.962,3.032,3.166c0.387,0.546,0.818,1.069,0.914,1.767
			c0.06,0.433,0.002,0.845-0.213,1.227c-0.216,0.383-0.62,0.398-0.84,0.015c-0.509-0.887-1.1-1.716-1.794-2.462
			c-0.679-0.729-1.423-1.407-2.335-1.83c-1.082-0.502-2.233-0.757-3.431-0.6c-0.518,0.068-1.025,0.23-1.517,0.428
			c-1.412,0.567-2.453,1.589-3.378,2.749c-1.7,2.13-2.696,4.6-3.445,7.188c-0.571,1.975-0.926,3.992-1.094,6.036
			c-0.167,2.021-0.189,4.046-0.039,6.073c0.148,1.995,0.449,3.961,0.935,5.9c0.418,1.665,0.99,3.279,1.723,4.83
			c0.538,1.138,1.193,2.217,1.992,3.188c0.969,1.178,2.095,2.181,3.546,2.751c1.058,0.415,2.147,0.449,3.243,0.215
			c1.479-0.315,2.643-1.156,3.68-2.224c0.731-0.753,1.304-1.614,1.868-2.486c0.115-0.178,0.229-0.339,0.477-0.331
			c0.248,0.008,0.366,0.171,0.456,0.361c0.294,0.623,0.278,1.254-0.062,1.842c-0.643,1.109-1.403,2.142-2.317,3.04
			c-0.669,0.657-1.366,1.311-2.229,1.711c-0.769,0.356-1.559,0.697-2.434,0.697c-0.263,0-0.495,0.163-0.764,0.115
			c-0.813-0.143-1.627-0.238-2.41-0.552c-1.528-0.613-2.67-1.688-3.696-2.917c-1.934-2.315-3.076-5.029-3.931-7.883
			c-0.59-1.967-0.992-3.974-1.226-6.013c-0.113-0.979-0.202-1.961-0.233-2.948C346.264,346.627,346.216,345.935,346.234,345.24z"/>
	</g>
</g>
<g>
	<g>
		<path fill="#FFFFFF" stroke="#000000" stroke-miterlimit="10" d="M198.859,353.168l-3.601-6.648h-2.712v6.648h-1.891v-15.744h4.671c0.76,0,1.462,0.076,2.108,0.228
			c0.646,0.152,1.2,0.404,1.664,0.756c0.463,0.352,0.824,0.808,1.083,1.368c0.258,0.561,0.387,1.248,0.387,2.064
			c0,1.232-0.304,2.216-0.912,2.952c-0.608,0.736-1.421,1.24-2.438,1.512l3.783,6.864H198.859z M192.546,344.888h2.507
			c1.17,0,2.066-0.252,2.689-0.756c0.623-0.504,0.934-1.268,0.934-2.292c0-1.04-0.312-1.768-0.934-2.184
			c-0.623-0.416-1.52-0.624-2.689-0.624h-2.507V344.888z"/>
		<path fill="#FFFFFF" stroke="#000000" stroke-miterlimit="10" d="M207.701,353.456c-0.745,0-1.44-0.14-2.085-0.42c-0.646-0.28-1.208-0.68-1.687-1.2
			c-0.479-0.52-0.854-1.156-1.128-1.908c-0.273-0.751-0.41-1.608-0.41-2.568s0.14-1.82,0.421-2.58
			c0.281-0.76,0.653-1.404,1.117-1.932c0.463-0.528,0.992-0.932,1.584-1.212c0.593-0.279,1.208-0.42,1.846-0.42
			c0.698,0,1.325,0.128,1.88,0.384s1.018,0.624,1.39,1.104c0.372,0.48,0.657,1.056,0.854,1.728c0.197,0.672,0.296,1.424,0.296,2.256
			c0,0.208-0.004,0.412-0.011,0.612c-0.008,0.2-0.027,0.372-0.057,0.516h-7.475c0.076,1.248,0.445,2.236,1.105,2.964
			c0.661,0.729,1.523,1.092,2.586,1.092c0.532,0,1.022-0.084,1.47-0.252c0.448-0.168,0.877-0.388,1.288-0.66l0.661,1.296
			c-0.486,0.32-1.025,0.6-1.618,0.84C209.137,353.336,208.46,353.456,207.701,353.456z M210.14,346.4c0-1.184-0.239-2.084-0.718-2.7
			c-0.479-0.616-1.151-0.924-2.017-0.924c-0.396,0-0.771,0.081-1.128,0.24c-0.357,0.16-0.68,0.396-0.969,0.708
			s-0.528,0.692-0.718,1.14c-0.19,0.448-0.315,0.96-0.376,1.536H210.14z"/>
		<path fill="#FFFFFF" stroke="#000000" stroke-miterlimit="10" d="M217.773,353.456c-0.592,0-1.09-0.096-1.493-0.288c-0.403-0.192-0.729-0.456-0.98-0.792
			s-0.429-0.744-0.536-1.224s-0.159-1.008-0.159-1.584v-6.456h-1.641v-1.488l1.732-0.12l0.228-3.264h1.572v3.264h2.986v1.608h-2.986
			v6.48c0,0.72,0.125,1.276,0.376,1.668c0.251,0.393,0.695,0.588,1.333,0.588c0.197,0,0.41-0.032,0.638-0.096
			c0.228-0.064,0.433-0.136,0.615-0.216l0.365,1.488c-0.304,0.112-0.635,0.212-0.992,0.3S218.122,353.456,217.773,353.456z"/>
		<path fill="#FFFFFF" stroke="#000000" stroke-miterlimit="10" d="M221.989,341.504h1.55l0.16,2.112h0.068c0.379-0.736,0.839-1.32,1.378-1.752
			c0.539-0.432,1.128-0.648,1.766-0.648c0.441,0,0.835,0.081,1.185,0.24l-0.364,1.728c-0.183-0.064-0.35-0.112-0.501-0.144
			c-0.152-0.032-0.342-0.048-0.57-0.048c-0.471,0-0.961,0.2-1.47,0.6c-0.509,0.4-0.954,1.096-1.333,2.088v7.488h-1.869V341.504z"/>
	</g>
</g>
<g>
	<path fill="#FFFFFF" stroke="#000000" stroke-miterlimit="10" d="M369.304,337.424h2.399l3.024,8.4c0.192,0.544,0.38,1.092,0.564,1.644c0.184,0.552,0.371,1.101,0.563,1.644h0.096
		c0.192-0.543,0.372-1.092,0.54-1.644c0.168-0.552,0.349-1.1,0.54-1.644l2.977-8.4h2.424v15.744h-1.872v-8.664
		c0-0.704,0.032-1.479,0.096-2.328c0.064-0.848,0.12-1.624,0.168-2.328h-0.096l-1.248,3.576l-2.976,8.16h-1.32l-2.976-8.16
		l-1.248-3.576h-0.097c0.048,0.704,0.1,1.48,0.156,2.328c0.056,0.849,0.084,1.625,0.084,2.328v8.664h-1.8V337.424z"/>
	<path fill="#FFFFFF" stroke="#000000" stroke-miterlimit="10" d="M386.56,336.08h1.944v11.568h0.072l4.968-6.144h2.184l-3.912,4.68l4.44,6.984h-2.16l-3.408-5.616l-2.184,2.544v3.072
		h-1.944V336.08z"/>
	<path fill="#FFFFFF" stroke="#000000" stroke-miterlimit="10" d="M397.431,351.992c1.152-1.152,2.176-2.192,3.072-3.12c0.896-0.928,1.647-1.788,2.256-2.58
		c0.607-0.792,1.071-1.52,1.392-2.184c0.32-0.664,0.48-1.308,0.48-1.932c0-0.879-0.24-1.6-0.72-2.16
		c-0.48-0.56-1.209-0.84-2.185-0.84c-0.64,0-1.232,0.18-1.775,0.54c-0.545,0.36-1.041,0.796-1.488,1.308l-1.128-1.128
		c0.64-0.704,1.319-1.268,2.04-1.692c0.72-0.424,1.584-0.636,2.592-0.636c1.424,0,2.544,0.412,3.36,1.236
		c0.815,0.824,1.224,1.916,1.224,3.276c0,0.72-0.156,1.444-0.468,2.172c-0.313,0.728-0.744,1.48-1.296,2.256
		c-0.553,0.776-1.209,1.584-1.969,2.424c-0.76,0.84-1.596,1.732-2.508,2.676c0.416-0.032,0.848-0.063,1.296-0.096
		s0.872-0.048,1.272-0.048h4.439v1.704h-9.888V351.992z"/>
</g>
<g>

	<g>
		<g>
			<path fill="#FFFFFF" stroke="#000000" stroke-miterlimit="10" d="M296.702,151.149c-8.572-0.164-15.061-6.68-15.106-15.059c-0.045-8.299,6.817-15.02,15.223-15.004
				c8.218,0.015,14.964,6.823,14.953,15.09C311.761,144.399,304.961,151.155,296.702,151.149z M296.748,149.414
				c7.392-0.002,13.289-5.904,13.289-13.299c0-7.394-5.899-13.294-13.291-13.296c-7.503-0.002-13.427,5.866-13.427,13.299
				C283.32,143.55,289.245,149.417,296.748,149.414z"/>
			<path fill="#FFFFFF" stroke="#000000" stroke-miterlimit="10" d="M300.974,133.254c-0.981,0.889-2.005,1.736-2.935,2.677c-1.989,2.012-3.929,4.073-5.888,6.115
				c-0.284,0.296-0.554,0.605-0.837,0.902c-0.095,0.1-0.189,0.256-0.349,0.207c-0.17-0.052-0.135-0.232-0.144-0.371
				c-0.008-0.123-0.004-0.246-0.004-0.369c0-4.204,0-8.409,0-12.613c0-0.123-0.004-0.246,0.005-0.369
				c0.008-0.118-0.021-0.266,0.12-0.321c0.143-0.056,0.218,0.077,0.3,0.16c0.521,0.523,1.038,1.05,1.557,1.575
				c1.154,1.167,2.318,2.323,3.456,3.505c0.339,0.352,0.573,0.411,0.943,0.026c1.62-1.685,3.265-3.347,4.904-5.013
				c0.12-0.122,0.214-0.354,0.434-0.261c0.179,0.076,0.121,0.288,0.121,0.444c0.003,3.774,0.006,7.548-0.001,11.321
				c-0.001,0.717-0.338,1.109-0.883,1.1c-0.537-0.01-0.848-0.402-0.85-1.132c-0.008-2.359-0.001-4.717-0.007-7.076
				C300.915,133.544,300.983,133.313,300.974,133.254z M292.592,138.849c0.852-0.786,1.733-1.607,2.626-2.417
				c0.303-0.275,0.261-0.496-0.01-0.765c-0.638-0.634-1.254-1.29-1.891-1.925c-0.22-0.219-0.365-0.529-0.725-0.681
				C292.592,135.08,292.592,137.033,292.592,138.849z"/>
		</g>
	</g>
</g>
</svg>
