<?xml version="1.0" encoding="utf-8"?>
<svg version="1.2" xmlns="http://www.w3.org/2000/svg">
<g>
	<g>
		<g>
			<path fill="#FFFFFF" d="M59.691,128.246c-7.473-6.198-15.083-12.315-22.829-18.35c-3.969,1.075-7.931,2.175-11.886,3.299
				c2.589,7.431,5.176,14.863,7.765,22.295c-2.682,0.762-5.362,1.536-8.039,2.321c-6.312-17.547-12.623-35.094-18.935-52.642
				c7.059-2.072,14.139-4.068,21.236-5.989c3.462-0.936,6.753-1.529,9.864-1.784c3.111-0.252,5.91-0.046,8.392,0.612
				c2.481,0.66,4.594,1.797,6.342,3.406c1.747,1.61,3.032,3.801,3.864,6.569c1.257,4.182,0.894,7.852-1.041,11.018
				c-1.938,3.169-4.997,5.782-9.184,7.871c8.029,6.275,15.908,12.64,23.637,19.09C65.813,126.709,62.75,127.471,59.691,128.246z
				 M23.07,107.722c3.682-1.047,7.369-2.071,11.061-3.076c5.169-1.405,8.859-3.292,11.09-5.713c2.227-2.419,2.818-5.356,1.738-8.822
				c-1.095-3.519-3.269-5.627-6.537-6.304c-3.267-0.675-7.565-0.312-12.86,1.127c-3.783,1.029-7.559,2.079-11.331,3.151
				C18.51,94.629,20.79,101.175,23.07,107.722z"/>
			<path fill="#FFFFFF" d="M97.992,120.389c-3.213,0.68-6.334,0.851-9.379,0.512c-3.046-0.338-5.85-1.154-8.42-2.451
				c-2.57-1.296-4.82-3.08-6.75-5.359c-1.928-2.279-3.375-5.048-4.321-8.312c-0.947-3.265-1.175-6.336-0.665-9.217
				c0.508-2.879,1.55-5.461,3.129-7.739c1.578-2.277,3.582-4.195,6.004-5.746c2.422-1.55,5.09-2.639,7.987-3.257
				c3.174-0.676,6.137-0.83,8.876-0.467c2.738,0.364,5.152,1.205,7.237,2.52c2.084,1.315,3.843,3.045,5.281,5.182
				c1.436,2.138,2.489,4.64,3.163,7.499c0.169,0.715,0.317,1.42,0.446,2.114c0.128,0.696,0.183,1.303,0.166,1.823
				c-11.05,2.131-22.067,4.447-33.047,6.949c1.523,4.179,4.078,7.177,7.634,9.02c3.558,1.845,7.623,2.269,12.243,1.296
				c2.31-0.486,4.367-1.213,6.176-2.188c1.808-0.973,3.495-2.102,5.063-3.392c1.322,1.294,2.64,2.59,3.952,3.887
				c-1.854,1.512-3.96,2.935-6.321,4.277C104.084,118.685,101.269,119.696,97.992,120.389z M102.584,94.002
				c-0.995-4.064-2.823-6.94-5.507-8.615c-2.681-1.673-5.99-2.104-9.9-1.273c-1.784,0.38-3.408,1.021-4.869,1.918
				c-1.462,0.898-2.698,2.026-3.701,3.378c-1.005,1.354-1.719,2.893-2.142,4.611c-0.426,1.72-0.496,3.592-0.216,5.617
				C85.005,97.642,93.784,95.763,102.584,94.002z"/>
			<path fill="#FFFFFF" d="M141.633,112.181c-2.576,0.425-4.807,0.46-6.698,0.097c-1.892-0.362-3.507-1.026-4.851-1.992
				c-1.343-0.967-2.432-2.235-3.26-3.807c-0.828-1.572-1.463-3.351-1.9-5.337c-1.631-7.421-3.264-14.841-4.895-22.262
				c-2.48,0.445-4.957,0.899-7.434,1.362c-0.391-1.708-0.783-3.415-1.174-5.123c2.599-0.63,5.2-1.25,7.804-1.859
				c-0.476-3.814-0.949-7.629-1.414-11.444c2.424-0.432,4.851-0.855,7.277-1.269c0.786,3.759,1.572,7.517,2.36,11.275
				c4.547-0.776,9.099-1.522,13.655-2.238c0.357,1.856,0.715,3.714,1.072,5.57c-4.526,0.711-9.048,1.451-13.565,2.223
				c1.561,7.461,3.122,14.924,4.684,22.385c0.52,2.487,1.475,4.313,2.854,5.481c1.381,1.17,3.464,1.519,6.258,1.064
				c0.864-0.141,1.775-0.402,2.731-0.783c0.955-0.381,1.807-0.772,2.554-1.176c0.864,1.634,1.726,3.27,2.583,4.905
				c-1.252,0.595-2.627,1.166-4.12,1.721C144.658,111.528,143.151,111.93,141.633,112.181z"/>
			<path fill="#FFFFFF" d="M152.588,67.847c2.369-0.345,4.738-0.682,7.109-1.011c0.659,2.413,1.317,4.825,1.973,7.239
				c0.103-0.014,0.207-0.029,0.311-0.043c1.297-2.794,3.064-5.111,5.295-6.939c2.231-1.828,4.827-2.927,7.765-3.29
				c2.028-0.25,3.889-0.189,5.578,0.178c-0.269,2.074-0.534,4.149-0.794,6.222c-0.866-0.123-1.656-0.197-2.365-0.225
				c-0.712-0.026-1.587,0.024-2.629,0.154c-2.153,0.268-4.285,1.252-6.378,2.945c-2.096,1.696-3.716,4.39-4.851,8.072
				c1.458,8.676,2.917,17.351,4.375,26.027c-2.722,0.374-5.443,0.758-8.163,1.154C157.405,94.837,154.997,81.342,152.588,67.847z"/>
			<path fill="#FFFFFF" d="M420.641,63.533c2.377,0.268,4.755,0.544,7.131,0.829c-0.041,1.981-0.085,3.963-0.129,5.943
				c0.105,0.013,0.208,0.025,0.312,0.037c2.509-1.682,5.176-3.013,7.997-3.988c2.82-0.973,5.776-1.255,8.849-0.835
				c3.911,0.533,6.848,1.652,8.797,3.331c1.95,1.68,3.217,3.822,3.803,6.419c3.054-1.937,6.06-3.399,9.008-4.389
				c2.947-0.99,5.997-1.225,9.127-0.703c5.216,0.871,8.81,2.882,10.751,5.98c1.944,3.1,2.316,7.245,1.158,12.426
				c-1.898,8.491-3.796,16.983-5.693,25.474c-2.704-0.493-5.411-0.975-8.12-1.445c1.747-8.203,3.494-16.406,5.241-24.609
				c0.812-3.811,0.644-6.69-0.515-8.636c-1.16-1.944-3.334-3.188-6.512-3.711c-3.8-0.625-8.439,0.778-13.814,4.242
				c-1.815,9.764-3.63,19.527-5.443,29.291c-2.718-0.412-5.437-0.813-8.156-1.202c1.448-8.251,2.895-16.501,4.342-24.751
				c0.674-3.833,0.401-6.705-0.825-8.615c-1.228-1.909-3.478-3.092-6.738-3.528c-3.815-0.51-8.396,1.032-13.635,4.653
				c-1.458,9.812-2.915,19.624-4.372,29.436c-2.728-0.33-5.457-0.65-8.188-0.957C416.892,90.661,418.766,77.096,420.641,63.533z"/>
			<path fill="#FFFFFF" d="M511.679,58.368c2.861,0.57,5.72,1.151,8.577,1.745c-3.363,13.212-6.726,26.424-10.089,39.636
				c0.101,0.021,0.201,0.042,0.302,0.063c8.749-5.569,17.664-11.026,26.742-16.366c3.126,0.719,6.248,1.453,9.367,2.203
				c-7.147,3.959-14.197,7.991-21.148,12.093c4.075,9.336,7.955,18.69,11.64,28.058c-2.936-0.712-5.875-1.41-8.817-2.095
				c-2.823-7.453-5.767-14.898-8.829-22.334c-3.827,2.234-7.626,4.49-11.393,6.766c-0.893,3.509-1.786,7.017-2.679,10.526
				c-2.661-0.552-5.323-1.094-7.987-1.624C502.137,97.48,506.907,77.924,511.679,58.368z"/>
			<path fill="#FFFFFF" d="M543.075,122.986c5.901-2.737,11.224-5.171,15.937-7.335c4.711-2.163,8.789-4.221,12.216-6.196
				c3.425-1.975,6.2-3.883,8.308-5.739c2.107-1.855,3.528-3.827,4.25-5.921c1.017-2.952,0.832-5.658-0.58-8.11
				c-1.411-2.451-4.223-4.257-8.42-5.38c-2.753-0.736-5.501-0.799-8.225-0.189c-2.725,0.61-5.318,1.542-7.772,2.79
				c-1.215-1.679-2.44-3.357-3.672-5.032c3.478-1.706,7.009-2.876,10.576-3.51c3.565-0.633,7.545-0.373,11.908,0.8
				c6.163,1.655,10.533,4.4,13.069,8.156c2.539,3.76,2.97,7.922,1.351,12.473c-0.856,2.411-2.376,4.643-4.545,6.704
				c-2.168,2.063-4.856,4.067-8.049,6.025c-3.195,1.959-6.84,3.915-10.918,5.888c-4.079,1.973-8.5,4.06-13.248,6.275
				c1.735,0.336,3.534,0.694,5.4,1.074c1.865,0.381,3.615,0.795,5.246,1.24c6.039,1.647,12.063,3.353,18.072,5.117
				c-0.683,1.899-1.367,3.798-2.049,5.697c-13.285-3.899-26.644-7.512-40.068-10.839
				C542.267,125.644,542.671,124.315,543.075,122.986z"/>
		</g>
		<g>
			<path fill="#FFFFFF" d="M212.754,150.063c-3.892,0.377-7.647-0.887-11.33-3.798c-3.684-2.91-7.137-7.241-10.383-13.006
				c-3.245-5.762-6.204-12.862-8.86-21.313c-2.655-8.447-4.839-18.023-6.49-28.74c-1.649-10.712-2.424-20.399-2.257-29.06
				c0.166-8.656,1.156-16.104,2.989-22.327c1.831-6.222,4.448-11.11,7.831-14.651c3.379-3.538,7.399-5.542,12.001-5.988
				c4.599-0.446,9,0.777,13.14,3.654c4.139,2.88,7.863,7.189,11.148,12.917c3.286,5.728,6.016,12.814,8.209,21.243
				c2.192,8.432,3.704,17.975,4.596,28.626c0.904,10.789,1.017,20.566,0.409,29.329c-0.61,8.767-1.848,16.275-3.696,22.528
				c-1.848,6.258-4.219,11.154-7.131,14.704C220.015,147.731,216.644,149.687,212.754,150.063z M210.982,135.154
				c2.814-0.272,5.207-1.799,7.21-4.592c2.002-2.79,3.585-6.674,4.76-11.653c1.175-4.976,1.908-10.879,2.193-17.706
				c0.282-6.826,0.043-14.467-0.757-22.929c-0.787-8.321-1.98-15.789-3.611-22.398c-1.631-6.605-3.592-12.155-5.895-16.641
				c-2.302-4.483-4.887-7.875-7.742-10.168c-2.856-2.291-5.906-3.285-9.116-2.973c-3.211,0.311-5.96,1.867-8.212,4.653
				c-2.254,2.788-3.984,6.599-5.181,11.421c-1.198,4.825-1.814,10.625-1.856,17.393c-0.044,6.77,0.546,14.298,1.731,22.58
				c1.205,8.423,2.766,15.936,4.648,22.553c1.882,6.617,3.988,12.245,6.306,16.882c2.32,4.642,4.779,8.132,7.393,10.476
				C205.469,134.394,208.167,135.427,210.982,135.154z"/>
			<path fill="#FFFFFF" d="M269.734,146.288c-4.347,0.156-8.458-1.45-12.41-4.822c-3.953-3.372-7.529-8.046-10.75-14.032
				c1.328-4.058,2.68-8.113,4.057-12.166c2.629,4.935,5.558,8.866,8.797,11.803c3.238,2.937,6.47,4.347,9.746,4.23
				c4.173-0.149,7.337-2.255,9.543-6.355c2.203-4.095,3.245-9.426,3.07-15.997c-0.091-3.42-0.451-6.324-1.085-8.709
				c-0.635-2.381-1.466-4.416-2.492-6.105c-1.029-1.686-2.243-3.195-3.643-4.526c-1.402-1.327-2.913-2.721-4.537-4.177
				c-3.309-2.7-6.65-5.385-10.022-8.052c-1.651-1.299-3.356-2.869-5.124-4.707c-1.768-1.836-3.399-4.085-4.893-6.753
				c-1.496-2.666-2.792-5.853-3.888-9.569c-1.096-3.712-1.82-8.029-2.157-12.949c-0.346-5.055-0.115-9.802,0.723-14.238
				c0.834-4.435,2.162-8.312,3.99-11.627c1.827-3.312,4.09-5.923,6.78-7.823c2.689-1.896,5.721-2.911,9.073-3.027
				c4.395-0.154,8.517,1.271,12.314,4.261c3.796,2.991,7.023,6.939,9.678,11.829c-1.576,3.723-3.131,7.448-4.666,11.177
				c-2.263-3.927-4.772-6.987-7.508-9.175c-2.738-2.188-5.807-3.226-9.175-3.109c-4.03,0.141-7.19,2.021-9.44,5.615
				c-2.254,3.596-3.177,8.475-2.819,14.628c0.19,3.283,0.688,6.036,1.491,8.261c0.802,2.225,1.813,4.169,3.031,5.828
				c1.218,1.663,2.524,3.115,3.92,4.359c1.394,1.249,2.813,2.392,4.259,3.435c3.366,2.619,6.702,5.254,10.006,7.905
				c1.988,1.591,3.872,3.43,5.644,5.514c1.771,2.087,3.302,4.524,4.585,7.308c1.284,2.786,2.312,6.058,3.084,9.813
				c0.772,3.757,1.191,8.098,1.272,13.027c0.087,5.34-0.344,10.346-1.265,15.015c-0.923,4.672-2.275,8.766-4.045,12.293
				c-1.772,3.527-3.919,6.315-6.447,8.366C275.896,145.088,273.008,146.171,269.734,146.288z"/>
			<path fill="#FFFFFF" d="M302.952,8.473c3.715-0.001,7.43,0.016,11.146,0.052c4.396,24.009,8.419,48.043,12.07,72.097
				c0.693,4.674,1.353,9.38,1.983,14.122c0.629,4.741,1.264,9.452,1.902,14.126c0.132,0.004,0.265,0.007,0.397,0.011
				c0.95-4.631,1.866-9.298,2.744-13.999c0.878-4.701,1.817-9.364,2.82-13.991c5.181-23.813,10.727-47.589,16.639-71.319
				c3.749,0.167,7.497,0.354,11.244,0.558c-3.01,44.834-6.02,89.668-9.03,134.502c-2.463-0.135-4.926-0.26-7.389-0.376
				c1.419-24.685,2.838-49.369,4.257-74.053c0.346-6.017,0.866-12.641,1.569-19.878c0.704-7.233,1.343-13.853,1.916-19.862
				c-0.145-0.007-0.29-0.014-0.435-0.021c-2.48,10.098-4.895,20.204-7.245,30.318c-5.549,23.071-10.744,46.183-15.583,69.331
				c-1.769-0.053-3.538-0.1-5.308-0.144c-3.295-23.368-6.945-46.72-10.953-70.05c-1.674-10.223-3.414-20.441-5.219-30.656
				c-0.146-0.001-0.29-0.002-0.436-0.003c0.172,6.029,0.351,12.671,0.54,19.929c0.186,7.261,0.25,13.902,0.197,19.927
				c-0.219,24.717-0.437,49.434-0.656,74.151c-2.371-0.017-4.743-0.025-7.113-0.024C302.989,98.306,302.97,53.389,302.952,8.473z"/>
			<path fill="#FFFFFF" d="M395.052,150.178c-3.891-0.382-7.282-2.276-10.236-5.695c-2.953-3.418-5.378-8.186-7.291-14.314
				s-3.213-13.569-3.879-22.342c-0.665-8.769-0.57-18.615,0.356-29.54c0.913-10.784,2.492-20.43,4.808-28.919
				c2.312-8.489,5.166-15.629,8.577-21.414c3.408-5.782,7.252-10.112,11.509-12.976c4.254-2.861,8.753-4.068,13.425-3.607
				c4.452,0.44,8.156,2.52,11.063,6.218c2.906,3.7,5.095,7.85,6.58,12.441c-2.162,3.475-4.303,6.957-6.426,10.444
				c-1.343-4.013-3.065-7.308-5.16-9.876c-2.094-2.565-4.687-4.007-7.752-4.309c-3.43-0.34-6.683,0.632-9.723,2.902
				c-3.042,2.274-5.778,5.682-8.2,10.225c-2.421,4.543-4.464,10.121-6.134,16.723c-1.672,6.604-2.887,14.071-3.681,22.391
				c-0.807,8.462-1.038,16.103-0.726,22.933c0.31,6.829,1.075,12.701,2.285,17.614c1.209,4.917,2.873,8.773,5.001,11.577
				c2.128,2.808,4.677,4.351,7.684,4.648c3.071,0.302,5.918-0.745,8.58-3.15c2.662-2.404,5.354-5.863,8.104-10.382
				c1.004,3.704,1.988,7.408,2.951,11.114c-3.394,5.812-6.853,10.248-10.4,13.305C402.818,149.243,399.066,150.573,395.052,150.178z
				"/>
		</g>
	</g>
</g>
<g>
	<path fill="#FFFFFF" d="M126.301,174.031h7.486c1.467,0,2.808,0.121,4.023,0.362c1.214,0.241,2.248,0.633,3.102,1.175
		c0.854,0.542,1.521,1.26,2.002,2.152c0.48,0.893,0.721,1.989,0.721,3.291c0,1.254-0.234,2.338-0.701,3.255
		c-0.467,0.916-1.129,1.675-1.982,2.278c-0.855,0.604-1.876,1.056-3.062,1.357c-1.188,0.301-2.502,0.451-3.943,0.451h-4.323v9.402
		h-3.323L126.301,174.031L126.301,174.031z M133.547,185.892c2.295,0,3.996-0.393,5.104-1.175c1.108-0.783,1.661-2.02,1.661-3.707
		c0-1.712-0.58-2.899-1.741-3.562c-1.161-0.663-2.889-0.994-5.184-0.994h-3.763v9.438H133.547z"/>
	<path fill="#FFFFFF" d="M155.244,198.187c-1.201,0-2.342-0.205-3.423-0.614c-1.081-0.41-2.036-1.007-2.862-1.79
		c-0.827-0.782-1.488-1.748-1.982-2.893c-0.494-1.145-0.741-2.442-0.741-3.887c0-1.471,0.247-2.778,0.741-3.923
		c0.494-1.145,1.154-2.114,1.982-2.91c0.827-0.796,1.781-1.398,2.862-1.809c1.081-0.409,2.222-0.614,3.423-0.614
		c1.201,0,2.342,0.205,3.423,0.614c1.081,0.411,2.035,1.014,2.862,1.809c0.827,0.796,1.487,1.766,1.982,2.91
		c0.494,1.146,0.741,2.453,0.741,3.923c0,1.445-0.247,2.742-0.741,3.887c-0.494,1.145-1.154,2.11-1.982,2.893
		c-0.828,0.783-1.781,1.38-2.862,1.79C157.586,197.982,156.445,198.187,155.244,198.187z M155.244,195.728
		c0.827,0,1.588-0.163,2.282-0.488c0.694-0.325,1.288-0.782,1.781-1.374c0.494-0.591,0.874-1.296,1.141-2.114
		c0.267-0.82,0.4-1.737,0.4-2.748c0-1.012-0.133-1.935-0.4-2.766c-0.267-0.832-0.647-1.549-1.141-2.153
		c-0.494-0.603-1.089-1.067-1.781-1.392c-0.695-0.325-1.456-0.488-2.282-0.488c-0.827,0-1.588,0.163-2.282,0.488
		c-0.695,0.325-1.288,0.79-1.781,1.392c-0.494,0.604-0.875,1.32-1.141,2.153c-0.267,0.832-0.4,1.754-0.4,2.766
		s0.133,1.929,0.4,2.748c0.266,0.819,0.647,1.525,1.141,2.114c0.494,0.592,1.088,1.049,1.781,1.374
		C153.656,195.565,154.416,195.728,155.244,195.728z"/>
	<path fill="#FFFFFF" d="M166.893,180.179h3.363l2.882,10.161c0.214,0.844,0.414,1.663,0.6,2.459
		c0.186,0.796,0.374,1.603,0.56,2.423h0.16c0.214-0.82,0.427-1.633,0.641-2.442c0.214-0.808,0.44-1.62,0.681-2.441l3.002-10.161
		h3.203l3.042,10.161c0.24,0.844,0.474,1.663,0.701,2.459c0.227,0.796,0.447,1.603,0.661,2.423h0.16
		c0.214-0.82,0.414-1.627,0.6-2.423c0.186-0.796,0.387-1.615,0.6-2.459l2.842-10.161h3.122l-5.204,17.574h-4.003l-2.802-9.438
		c-0.24-0.843-0.46-1.674-0.661-2.494c-0.2-0.819-0.42-1.675-0.661-2.567h-0.16c-0.214,0.892-0.427,1.753-0.641,2.585
		s-0.454,1.669-0.721,2.513l-2.722,9.402h-3.843L166.893,180.179z"/>
	<path fill="#FFFFFF" d="M205.683,198.187c-1.308,0-2.529-0.211-3.663-0.633c-1.135-0.421-2.122-1.025-2.962-1.808
		c-0.841-0.782-1.501-1.741-1.982-2.875c-0.48-1.133-0.721-2.423-0.721-3.869c0-1.446,0.247-2.741,0.741-3.887
		c0.494-1.145,1.148-2.115,1.962-2.911c0.814-0.796,1.741-1.403,2.782-1.825c1.041-0.422,2.122-0.633,3.243-0.633
		c1.228,0,2.329,0.193,3.303,0.579c0.973,0.386,1.787,0.94,2.442,1.662c0.654,0.724,1.154,1.591,1.501,2.605
		c0.347,1.013,0.52,2.146,0.52,3.399c0,0.313-0.007,0.621-0.02,0.922c-0.014,0.301-0.047,0.561-0.1,0.776h-13.13
		c0.133,1.88,0.781,3.369,1.942,4.466c1.161,1.098,2.675,1.645,4.544,1.645c0.934,0,1.795-0.127,2.582-0.38
		c0.787-0.253,1.541-0.584,2.262-0.993l1.161,1.952c-0.855,0.482-1.801,0.904-2.842,1.266
		C208.206,198.006,207.017,198.187,205.683,198.187z M209.966,187.556c0-1.783-0.42-3.139-1.261-4.068
		c-0.841-0.928-2.022-1.392-3.543-1.392c-0.695,0-1.356,0.121-1.982,0.362c-0.627,0.24-1.194,0.597-1.701,1.067
		c-0.508,0.47-0.927,1.043-1.261,1.718s-0.554,1.446-0.661,2.314H209.966z"/>
	<path fill="#FFFFFF" d="M217.653,180.179h2.722l0.28,3.182h0.12c0.667-1.109,1.475-1.988,2.422-2.64
		c0.947-0.65,1.982-0.976,3.102-0.976c0.774,0,1.468,0.121,2.082,0.361l-0.641,2.605c-0.32-0.096-0.614-0.169-0.881-0.218
		c-0.267-0.048-0.6-0.071-1.001-0.071c-0.827,0-1.688,0.301-2.582,0.903c-0.894,0.604-1.675,1.652-2.342,3.146v11.282h-3.283
		L217.653,180.179L217.653,180.179z"/>
	<path fill="#FFFFFF" d="M239.029,198.187c-1.308,0-2.529-0.211-3.663-0.633c-1.135-0.421-2.122-1.025-2.962-1.808
		c-0.841-0.782-1.501-1.741-1.982-2.875c-0.48-1.133-0.721-2.423-0.721-3.869c0-1.446,0.247-2.741,0.741-3.887
		c0.494-1.145,1.148-2.115,1.962-2.911c0.814-0.796,1.741-1.403,2.782-1.825c1.041-0.422,2.122-0.633,3.243-0.633
		c1.228,0,2.329,0.193,3.303,0.579c0.973,0.386,1.787,0.94,2.442,1.662c0.654,0.724,1.154,1.591,1.501,2.605
		c0.347,1.013,0.52,2.146,0.52,3.399c0,0.313-0.007,0.621-0.02,0.922c-0.014,0.301-0.047,0.561-0.1,0.776h-13.13
		c0.133,1.88,0.781,3.369,1.942,4.466c1.161,1.098,2.675,1.645,4.544,1.645c0.934,0,1.795-0.127,2.582-0.38
		c0.787-0.253,1.541-0.584,2.262-0.993l1.161,1.952c-0.855,0.482-1.801,0.904-2.842,1.266
		C241.551,198.006,240.362,198.187,239.029,198.187z M243.312,187.556c0-1.783-0.42-3.139-1.261-4.068
		c-0.841-0.928-2.022-1.392-3.543-1.392c-0.695,0-1.356,0.121-1.982,0.362c-0.627,0.24-1.194,0.597-1.701,1.067
		c-0.508,0.47-0.927,1.043-1.261,1.718s-0.554,1.446-0.661,2.314H243.312z"/>
	<path fill="#FFFFFF" d="M257.643,198.187c-2.455,0-4.41-0.796-5.865-2.387c-1.454-1.591-2.182-3.856-2.182-6.798
		c0-1.422,0.234-2.706,0.701-3.851c0.467-1.145,1.088-2.115,1.861-2.911c0.774-0.796,1.668-1.409,2.682-1.844
		c1.014-0.434,2.082-0.65,3.203-0.65s2.095,0.181,2.922,0.542c0.827,0.361,1.668,0.856,2.522,1.483l-0.16-3.001v-6.761h3.323v25.747
		h-2.722l-0.28-2.061h-0.12c-0.775,0.675-1.661,1.26-2.662,1.754C259.864,197.94,258.79,198.187,257.643,198.187z M258.363,195.692
		c0.906,0,1.761-0.199,2.562-0.598c0.801-0.398,1.601-1.005,2.402-1.825v-9.186c-0.827-0.674-1.621-1.151-2.382-1.428
		c-0.761-0.276-1.541-0.416-2.342-0.416c-0.774,0-1.501,0.163-2.182,0.488c-0.681,0.325-1.274,0.783-1.781,1.374
		c-0.507,0.591-0.907,1.296-1.201,2.114c-0.294,0.82-0.44,1.737-0.44,2.748c0,2.121,0.466,3.774,1.401,4.954
		C255.334,195.101,256.655,195.692,258.363,195.692z"/>
	<path fill="#FFFFFF" d="M289.828,198.187c-0.907,0-1.848-0.198-2.822-0.597c-0.974-0.398-1.888-0.945-2.742-1.645h-0.12
		l-0.28,1.808h-2.642v-25.747h3.283v7.014l-0.08,3.182c0.881-0.698,1.841-1.283,2.882-1.753c1.041-0.471,2.108-0.705,3.203-0.705
		c1.253,0,2.362,0.211,3.323,0.633c0.961,0.422,1.768,1.026,2.422,1.808c0.653,0.783,1.146,1.724,1.481,2.821
		c0.334,1.098,0.5,2.321,0.5,3.67c0,1.495-0.227,2.833-0.681,4.014c-0.455,1.181-1.068,2.183-1.841,3.001
		c-0.774,0.82-1.668,1.441-2.682,1.862C292.017,197.976,290.949,198.187,289.828,198.187z M289.268,195.692
		c0.801,0,1.541-0.163,2.222-0.488s1.268-0.782,1.761-1.374c0.494-0.591,0.881-1.319,1.161-2.188s0.42-1.844,0.42-2.929
		c0-0.964-0.093-1.844-0.28-2.64c-0.187-0.796-0.487-1.477-0.901-2.043c-0.414-0.566-0.947-1.007-1.601-1.319
		c-0.654-0.314-1.436-0.471-2.342-0.471c-1.576,0-3.309,0.796-5.204,2.387v9.222c0.854,0.675,1.701,1.151,2.542,1.428
		C287.887,195.554,288.627,195.692,289.268,195.692z"/>
	<path fill="#FFFFFF" d="M303.519,205.311c-0.455,0-0.867-0.031-1.241-0.091c-0.374-0.06-0.721-0.15-1.041-0.271l0.642-2.35
		c0.212,0.048,0.453,0.102,0.719,0.163c0.266,0.06,0.52,0.09,0.762,0.09c1.121,0,2.034-0.356,2.741-1.068
		c0.708-0.711,1.262-1.609,1.661-2.694l0.44-1.302l-7.806-17.611h3.403l3.962,9.728c0.294,0.771,0.607,1.585,0.941,2.441
		c0.335,0.856,0.647,1.695,0.942,2.513h0.16c0.294-0.796,0.574-1.627,0.841-2.495c0.267-0.867,0.534-1.688,0.802-2.458l3.483-9.728
		h3.203l-7.326,19.022c-0.348,0.867-0.734,1.674-1.161,2.422c-0.427,0.747-0.935,1.393-1.521,1.936
		c-0.586,0.542-1.255,0.97-2.002,1.283C305.373,205.153,304.507,205.311,303.519,205.311z"/>
	<path fill="#FFFFFF" d="M344.632,197.753l-6.325-10.017h-4.765v10.017h-3.322v-23.722h8.207c1.333,0,2.569,0.115,3.703,0.344
		c1.134,0.23,2.108,0.609,2.922,1.14c0.813,0.53,1.448,1.217,1.901,2.061c0.454,0.844,0.681,1.88,0.681,3.11
		c0,1.857-0.534,3.339-1.601,4.448s-2.495,1.868-4.283,2.279l6.645,10.342h-3.763V197.753z M333.542,185.277h4.405
		c2.055,0,3.63-0.38,4.724-1.139c1.093-0.759,1.641-1.911,1.641-3.453c0-1.567-0.547-2.663-1.641-3.29s-2.669-0.941-4.724-0.941
		h-4.405V185.277z"/>
	<path fill="#FFFFFF" d="M360.163,198.187c-1.308,0-2.529-0.211-3.663-0.633c-1.135-0.421-2.122-1.025-2.962-1.808
		c-0.841-0.782-1.501-1.741-1.982-2.875c-0.48-1.133-0.719-2.423-0.719-3.869c0-1.446,0.247-2.741,0.741-3.887
		c0.493-1.145,1.146-2.115,1.962-2.911c0.813-0.796,1.741-1.403,2.782-1.825c1.042-0.422,2.122-0.633,3.243-0.633
		c1.228,0,2.328,0.193,3.303,0.579c0.974,0.386,1.788,0.94,2.442,1.662c0.654,0.724,1.154,1.591,1.501,2.605
		c0.348,1.013,0.522,2.146,0.522,3.399c0,0.313-0.008,0.621-0.021,0.922c-0.013,0.301-0.047,0.561-0.1,0.776h-13.13
		c0.132,1.88,0.781,3.369,1.942,4.466c1.161,1.098,2.674,1.645,4.544,1.645c0.934,0,1.794-0.127,2.581-0.38s1.542-0.584,2.262-0.993
		l1.161,1.952c-0.855,0.482-1.801,0.904-2.842,1.266C362.684,198.006,361.497,198.187,360.163,198.187z M364.446,187.556
		c0-1.783-0.421-3.139-1.262-4.068c-0.841-0.928-2.02-1.392-3.543-1.392c-0.695,0-1.356,0.121-1.982,0.362
		c-0.627,0.24-1.194,0.597-1.701,1.067c-0.507,0.47-0.927,1.043-1.261,1.718s-0.554,1.446-0.661,2.314H364.446z"/>
	<path fill="#FFFFFF" d="M377.857,198.187c-1.041,0-1.916-0.145-2.622-0.434c-0.706-0.289-1.28-0.687-1.721-1.193
		c-0.44-0.506-0.754-1.12-0.941-1.844c-0.187-0.723-0.28-1.519-0.28-2.387v-9.727h-2.882v-2.242l3.041-0.181l0.4-4.918h2.762v4.918
		h5.244v2.423h-5.244v9.764c0,1.085,0.219,1.923,0.661,2.513c0.44,0.592,1.221,0.886,2.341,0.886c0.348,0,0.721-0.047,1.122-0.145
		c0.399-0.096,0.761-0.204,1.081-0.325l0.64,2.242c-0.534,0.169-1.115,0.318-1.741,0.452
		C379.09,198.12,378.471,198.187,377.857,198.187z"/>
	<path fill="#FFFFFF" d="M385.263,180.179h2.722l0.28,3.182h0.119c0.667-1.109,1.474-1.988,2.423-2.64
		c0.947-0.65,1.98-0.976,3.101-0.976c0.774,0,1.468,0.121,2.082,0.361l-0.639,2.605c-0.32-0.096-0.615-0.169-0.881-0.218
		c-0.267-0.048-0.6-0.071-1.001-0.071c-0.827,0-1.689,0.301-2.582,0.903c-0.894,0.604-1.675,1.652-2.341,3.146v11.282h-3.283
		v-17.573L385.263,180.179L385.263,180.179z"/>
	<path fill="#FFFFFF" d="M406.319,198.187c-1.201,0-2.341-0.205-3.423-0.614c-1.081-0.41-2.035-1.007-2.862-1.79
		c-0.827-0.782-1.488-1.748-1.98-2.893c-0.494-1.145-0.741-2.442-0.741-3.887c0-1.471,0.247-2.778,0.741-3.923
		c0.493-1.145,1.153-2.114,1.98-2.91c0.827-0.796,1.783-1.398,2.862-1.809c1.082-0.409,2.222-0.614,3.423-0.614
		c1.201,0,2.342,0.205,3.423,0.614c1.081,0.411,2.035,1.014,2.862,1.809c0.826,0.796,1.488,1.766,1.982,2.91
		c0.493,1.146,0.741,2.453,0.741,3.923c0,1.445-0.248,2.742-0.741,3.887c-0.494,1.145-1.155,2.11-1.982,2.893
		c-0.827,0.783-1.783,1.38-2.862,1.79C408.661,197.982,407.52,198.187,406.319,198.187z M406.319,195.728
		c0.827,0,1.588-0.163,2.282-0.488c0.694-0.325,1.288-0.782,1.783-1.374c0.493-0.591,0.874-1.296,1.14-2.114
		c0.267-0.82,0.4-1.737,0.4-2.748c0-1.012-0.133-1.935-0.4-2.766c-0.266-0.832-0.647-1.549-1.14-2.153
		c-0.494-0.603-1.089-1.067-1.783-1.392c-0.694-0.325-1.455-0.488-2.282-0.488s-1.588,0.163-2.282,0.488s-1.288,0.79-1.783,1.392
		c-0.494,0.604-0.874,1.32-1.14,2.153c-0.267,0.832-0.4,1.754-0.4,2.766s0.133,1.929,0.4,2.748c0.266,0.819,0.646,1.525,1.14,2.114
		c0.494,0.592,1.089,1.049,1.783,1.374S405.492,195.728,406.319,195.728z"/>
	<path fill="#FFFFFF" d="M420.771,174.031h7.485c1.468,0,2.809,0.121,4.023,0.362c1.214,0.241,2.247,0.633,3.102,1.175
		c0.854,0.542,1.521,1.26,2.002,2.152c0.482,0.893,0.721,1.989,0.721,3.291c0,1.254-0.235,2.338-0.701,3.255
		c-0.468,0.916-1.129,1.675-1.982,2.278c-0.855,0.604-1.876,1.056-3.062,1.357c-1.188,0.301-2.502,0.451-3.943,0.451h-4.325v9.402
		h-3.322v-23.722H420.771z M428.016,185.892c2.294,0,3.996-0.393,5.104-1.175c1.108-0.783,1.661-2.02,1.661-3.707
		c0-1.712-0.579-2.899-1.74-3.562c-1.161-0.663-2.89-0.994-5.184-0.994h-3.764v9.438H428.016z"/>
	<path fill="#FFFFFF" d="M444.789,176.563c-0.64,0-1.181-0.182-1.621-0.542c-0.44-0.362-0.661-0.819-0.661-1.374
		c0-0.579,0.22-1.043,0.661-1.392s0.981-0.524,1.621-0.524s1.182,0.175,1.621,0.524c0.44,0.35,0.661,0.814,0.661,1.392
		c0,0.555-0.219,1.012-0.661,1.374C445.971,176.382,445.431,176.563,444.789,176.563z M443.109,180.179h3.283v17.574h-3.283V180.179
		z"/>
	<path fill="#FFFFFF" d="M460.842,198.187c-1.308,0-2.529-0.211-3.663-0.633c-1.135-0.421-2.122-1.025-2.962-1.808
		c-0.841-0.782-1.501-1.741-1.982-2.875c-0.48-1.133-0.719-2.423-0.719-3.869c0-1.446,0.247-2.741,0.741-3.887
		c0.493-1.145,1.146-2.115,1.962-2.911c0.813-0.796,1.741-1.403,2.782-1.825c1.042-0.422,2.122-0.633,3.243-0.633
		c1.228,0,2.329,0.193,3.303,0.579c0.974,0.386,1.788,0.94,2.442,1.662c0.654,0.724,1.154,1.591,1.501,2.605
		c0.348,1.013,0.522,2.146,0.522,3.399c0,0.313-0.008,0.621-0.021,0.922c-0.013,0.301-0.047,0.561-0.1,0.776h-13.13
		c0.132,1.88,0.781,3.369,1.942,4.466c1.161,1.098,2.674,1.645,4.544,1.645c0.934,0,1.794-0.127,2.581-0.38
		c0.787-0.253,1.542-0.584,2.262-0.993l1.161,1.952c-0.855,0.482-1.801,0.904-2.842,1.266
		C463.363,198.006,462.176,198.187,460.842,198.187z M465.125,187.556c0-1.783-0.421-3.139-1.262-4.068
		c-0.841-0.928-2.02-1.392-3.543-1.392c-0.695,0-1.355,0.121-1.982,0.362c-0.627,0.24-1.194,0.597-1.701,1.067
		c-0.507,0.47-0.927,1.043-1.261,1.718s-0.554,1.446-0.661,2.314H465.125z"/>
</g>
</svg>
