<?xml version="1.0" encoding="utf-8"?>
<!-- Generator: Adobe Illustrator 17.0.0, SVG Export Plug-In . SVG Version: 6.00 Build 0)  -->
<!DOCTYPE svg PUBLIC "-//W3C//DTD SVG 1.1//EN" "http://www.w3.org/Graphics/SVG/1.1/DTD/svg11.dtd">
<svg version="1.1" id="Lager_1" xmlns="http://www.w3.org/2000/svg" xmlns:xlink="http://www.w3.org/1999/xlink" x="0px" y="0px"
	 width="595.28px" height="841.89px" viewBox="0 0 595.28 841.89" enable-background="new 0 0 595.28 841.89" xml:space="preserve">
<g>
	<path fill="#FFFFFF" d="M59.459,212.437l-7.584-13.296h-5.712v13.296h-3.984v-31.488h9.84c1.6,0,3.079,0.152,4.44,0.456
		c1.36,0.305,2.527,0.809,3.504,1.512c0.976,0.704,1.735,1.616,2.28,2.736c0.544,1.121,0.816,2.496,0.816,4.128
		c0,2.464-0.641,4.432-1.92,5.904c-1.28,1.472-2.992,2.48-5.136,3.024l7.968,13.728H59.459z M46.164,195.876h5.28
		c2.464,0,4.352-0.504,5.664-1.512c1.312-1.008,1.968-2.536,1.968-4.584c0-2.08-0.656-3.536-1.968-4.368
		c-1.313-0.832-3.2-1.248-5.664-1.248h-5.28V195.876z"/>
	<path fill="#FFFFFF" d="M78.083,213.013c-1.568,0-3.032-0.281-4.392-0.84c-1.36-0.56-2.544-1.359-3.552-2.4
		c-1.008-1.04-1.8-2.312-2.376-3.816c-0.576-1.504-0.864-3.216-0.864-5.136c0-1.92,0.295-3.64,0.888-5.16
		c0.592-1.52,1.375-2.808,2.352-3.864c0.976-1.056,2.088-1.864,3.336-2.424c1.248-0.56,2.544-0.84,3.888-0.84
		c1.472,0,2.792,0.256,3.96,0.768c1.168,0.513,2.144,1.248,2.928,2.208c0.784,0.96,1.384,2.112,1.8,3.456
		c0.416,1.344,0.624,2.849,0.624,4.512c0,0.416-0.008,0.824-0.024,1.224c-0.017,0.4-0.056,0.744-0.12,1.032H70.787
		c0.16,2.496,0.936,4.472,2.328,5.928c1.392,1.457,3.208,2.184,5.448,2.184c1.12,0,2.152-0.168,3.096-0.504
		c0.944-0.336,1.848-0.775,2.712-1.32l1.392,2.592c-1.024,0.641-2.16,1.2-3.408,1.68S79.683,213.013,78.083,213.013z M83.219,198.9
		c0-2.368-0.504-4.167-1.512-5.4c-1.008-1.231-2.424-1.848-4.248-1.848c-0.833,0-1.625,0.161-2.376,0.48
		c-0.752,0.32-1.433,0.792-2.04,1.416c-0.608,0.624-1.112,1.385-1.512,2.28c-0.4,0.896-0.665,1.92-0.792,3.072H83.219z"/>
	<path fill="#FFFFFF" d="M99.298,213.013c-1.248,0-2.296-0.192-3.144-0.576c-0.849-0.384-1.536-0.912-2.064-1.584
		c-0.528-0.672-0.904-1.488-1.128-2.448c-0.224-0.96-0.336-2.016-0.336-3.168v-12.912H89.17v-2.976l3.648-0.24l0.48-6.528h3.312
		v6.528h6.288v3.216H96.61v12.96c0,1.44,0.264,2.552,0.792,3.336c0.528,0.784,1.464,1.176,2.808,1.176
		c0.416,0,0.864-0.063,1.344-0.192c0.48-0.127,0.912-0.271,1.296-0.432l0.768,2.976c-0.641,0.224-1.336,0.424-2.088,0.6
		C100.778,212.924,100.034,213.013,99.298,213.013z"/>
	<path fill="#FFFFFF" d="M108.178,189.108h3.264l0.336,4.224h0.144c0.799-1.472,1.768-2.64,2.904-3.504
		c1.136-0.864,2.376-1.296,3.72-1.296c0.928,0,1.759,0.16,2.496,0.48l-0.768,3.456c-0.384-0.128-0.737-0.224-1.056-0.288
		c-0.32-0.064-0.72-0.096-1.2-0.096c-0.992,0-2.024,0.4-3.096,1.2c-1.073,0.8-2.009,2.192-2.808,4.176v14.976h-3.936V189.108z"/>
</g>
<g>
	<path fill="#FFFFFF" d="M163.856,236.268c-4.465,0-8.55-0.864-12.258-2.592c-3.709-1.728-6.896-4.193-9.558-7.398
		c-2.665-3.203-4.735-7.091-6.21-11.664c-1.477-4.571-2.214-9.702-2.214-15.39c0-5.687,0.737-10.781,2.214-15.282
		c1.475-4.499,3.545-8.316,6.21-11.448c2.663-3.132,5.849-5.525,9.558-7.182c3.708-1.655,7.793-2.484,12.258-2.484
		c4.463,0,8.549,0.847,12.258,2.538c3.708,1.692,6.912,4.104,9.612,7.236c2.7,3.132,4.788,6.949,6.264,11.448
		c1.475,4.5,2.214,9.558,2.214,15.174c0,5.688-0.739,10.819-2.214,15.39c-1.477,4.573-3.564,8.461-6.264,11.664
		c-2.7,3.205-5.905,5.67-9.612,7.398C172.405,235.404,168.319,236.268,163.856,236.268z M163.856,228.384
		c3.167,0,6.029-0.684,8.586-2.052c2.555-1.367,4.752-3.329,6.588-5.886c1.836-2.555,3.257-5.616,4.266-9.18
		c1.007-3.564,1.512-7.577,1.512-12.042c0-4.391-0.505-8.352-1.512-11.88c-1.009-3.527-2.43-6.516-4.266-8.964
		c-1.836-2.447-4.033-4.337-6.588-5.67c-2.557-1.331-5.418-1.998-8.586-1.998c-3.169,0-6.031,0.667-8.586,1.998
		c-2.557,1.333-4.752,3.223-6.588,5.67c-1.836,2.448-3.259,5.437-4.266,8.964c-1.009,3.528-1.512,7.489-1.512,11.88
		c0,4.465,0.503,8.478,1.512,12.042c1.007,3.564,2.43,6.625,4.266,9.18c1.836,2.557,4.031,4.519,6.588,5.886
		C157.825,227.7,160.687,228.384,163.856,228.384z"/>
	<path fill="#FFFFFF" d="M229.086,236.268c-4.968,0-9.577-0.937-13.824-2.808c-4.249-1.871-7.921-4.428-11.016-7.668l5.4-6.264
		c2.52,2.665,5.489,4.806,8.91,6.426c3.418,1.62,6.966,2.43,10.638,2.43c4.68,0,8.316-1.062,10.908-3.186
		c2.592-2.123,3.888-4.914,3.888-8.37c0-1.799-0.307-3.33-0.918-4.59c-0.612-1.259-1.441-2.339-2.484-3.24
		c-1.044-0.899-2.287-1.709-3.726-2.43c-1.441-0.719-2.988-1.475-4.644-2.268l-10.152-4.428c-1.657-0.719-3.348-1.583-5.076-2.592
		c-1.728-1.007-3.277-2.231-4.644-3.672c-1.369-1.439-2.484-3.149-3.348-5.13c-0.864-1.979-1.296-4.266-1.296-6.858
		c0-2.663,0.557-5.147,1.674-7.452c1.115-2.303,2.663-4.301,4.644-5.994c1.979-1.691,4.32-3.005,7.02-3.942
		c2.7-0.935,5.67-1.404,8.91-1.404c4.247,0,8.17,0.81,11.772,2.43c3.599,1.62,6.659,3.726,9.18,6.318l-4.86,5.832
		c-2.16-2.087-4.555-3.726-7.182-4.914c-2.629-1.188-5.599-1.782-8.91-1.782c-3.961,0-7.147,0.918-9.558,2.754
		c-2.413,1.836-3.618,4.374-3.618,7.614c0,1.728,0.341,3.186,1.026,4.374c0.684,1.188,1.602,2.232,2.754,3.132
		c1.151,0.901,2.411,1.693,3.78,2.376c1.367,0.685,2.771,1.314,4.212,1.89l10.044,4.32c2.015,0.864,3.923,1.854,5.724,2.97
		c1.799,1.117,3.348,2.413,4.644,3.888c1.296,1.477,2.322,3.205,3.078,5.184c0.756,1.981,1.134,4.266,1.134,6.858
		c0,2.808-0.559,5.437-1.674,7.884c-1.117,2.449-2.719,4.59-4.806,6.426c-2.089,1.836-4.608,3.277-7.56,4.32
		C236.177,235.745,232.829,236.268,229.086,236.268z"/>
	<path fill="#FFFFFF" d="M267.103,164.124h10.8l13.608,37.8c0.864,2.448,1.709,4.914,2.538,7.398
		c0.827,2.484,1.674,4.951,2.538,7.398h0.432c0.864-2.447,1.673-4.914,2.431-7.398c0.756-2.484,1.565-4.95,2.43-7.398l13.392-37.8
		h10.908v70.848h-8.424v-38.988c0-3.167,0.144-6.659,0.432-10.476c0.287-3.815,0.54-7.307,0.756-10.476h-0.432l-5.616,16.092
		l-13.392,36.72h-5.94l-13.392-36.72l-5.616-16.092h-0.432c0.216,3.169,0.449,6.661,0.702,10.476
		c0.251,3.817,0.378,7.309,0.378,10.476v38.988h-8.1V164.124z"/>
	<path fill="#FFFFFF" d="M372.401,236.268c-4.465,0-8.569-0.829-12.312-2.484c-3.745-1.655-7.004-4.05-9.774-7.182
		c-2.772-3.132-4.933-6.983-6.479-11.556c-1.55-4.572-2.322-9.737-2.322-15.498c0-5.687,0.791-10.8,2.376-15.336
		c1.583-4.536,3.78-8.387,6.588-11.556c2.808-3.167,6.119-5.598,9.936-7.29c3.815-1.691,7.992-2.538,12.528-2.538
		c4.32,0,8.117,0.883,11.395,2.646c3.275,1.765,5.956,3.799,8.046,6.102l-4.86,5.832c-1.873-2.015-3.996-3.635-6.372-4.86
		c-2.376-1.224-5.076-1.836-8.1-1.836c-3.386,0-6.445,0.667-9.181,1.998c-2.736,1.333-5.075,3.24-7.02,5.724
		s-3.439,5.491-4.482,9.018c-1.044,3.529-1.565,7.489-1.565,11.88c0,4.465,0.521,8.478,1.565,12.042
		c1.043,3.564,2.501,6.607,4.374,9.126c1.872,2.521,4.158,4.465,6.858,5.832c2.7,1.369,5.741,2.052,9.126,2.052
		c3.456,0,6.479-0.702,9.072-2.106c2.592-1.404,5.038-3.365,7.344-5.886l4.968,5.616c-2.808,3.24-5.977,5.761-9.504,7.56
		C381.077,235.367,377.009,236.268,372.401,236.268z"/>
</g>
<g>
	<path fill="#FFFFFF" d="M399.541,189.108h3.265l0.336,3.36h0.144c1.024-1.12,2.137-2.056,3.336-2.808
		c1.2-0.751,2.504-1.128,3.912-1.128c1.792,0,3.192,0.392,4.2,1.176c1.008,0.785,1.752,1.88,2.232,3.288
		c1.216-1.344,2.439-2.424,3.672-3.24c1.231-0.816,2.567-1.224,4.008-1.224c2.4,0,4.184,0.768,5.352,2.304s1.752,3.809,1.752,6.816
		v14.784h-3.936v-14.256c0-2.208-0.353-3.8-1.056-4.776c-0.705-0.976-1.793-1.464-3.265-1.464c-1.76,0-3.712,1.2-5.855,3.6v16.896
		h-3.937v-14.256c0-2.208-0.353-3.8-1.056-4.776c-0.704-0.976-1.809-1.464-3.313-1.464c-1.76,0-3.712,1.2-5.855,3.6v16.896h-3.937
		V189.108z"/>
	<path fill="#FFFFFF" d="M439.333,178.261h3.889v23.136h0.144l9.937-12.288h4.368l-7.824,9.36l8.88,13.968h-4.32l-6.815-11.232
		l-4.368,5.088v6.144h-3.889V178.261z"/>
	<path fill="#FFFFFF" d="M461.077,210.084c2.304-2.304,4.352-4.384,6.145-6.24c1.791-1.855,3.295-3.576,4.512-5.16
		c1.216-1.584,2.144-3.04,2.784-4.368c0.64-1.327,0.96-2.616,0.96-3.864c0-1.76-0.48-3.2-1.44-4.32
		c-0.96-1.12-2.416-1.68-4.368-1.68c-1.28,0-2.464,0.36-3.552,1.08c-1.088,0.72-2.08,1.592-2.976,2.616l-2.257-2.256
		c1.28-1.408,2.641-2.536,4.08-3.384c1.44-0.847,3.168-1.272,5.185-1.272c2.848,0,5.088,0.824,6.72,2.472
		c1.632,1.648,2.448,3.833,2.448,6.552c0,1.44-0.313,2.888-0.937,4.344c-0.624,1.457-1.487,2.96-2.592,4.512
		c-1.104,1.552-2.416,3.168-3.936,4.848c-1.521,1.68-3.192,3.464-5.017,5.352c0.832-0.063,1.696-0.127,2.593-0.192
		c0.896-0.064,1.743-0.096,2.544-0.096h8.88v3.408h-19.776V210.084z"/>
</g>
<g>
</g>
<g>
</g>
<g>
</g>
<g>
</g>
<g>
</g>
<g>
</g>
</svg>
