<?xml version="1.0" encoding="utf-8"?>

<svg version="1.1" xmlns="http://www.w3.org/2000/svg" >
<g>
	<path id="path0" fill="#FFFFFF" stroke="#000000" stroke-miterlimit="10" d="M184.751,31.111
		c-29.241,3.417-82.918,12.507-98.888,16.747l-3.58,0.95l-0.374,6.545c-0.732,12.817-7.874,35.901-19.047,61.562l-3.535,8.118
		l3.822,8.891C75.076,161.675,82.06,185.089,82.1,197.46l0.011,3.619l2.786,0.911c10.747,3.517,74.674,14.445,102.053,17.445
		l11.877,1.302l11.877-1.31c26.663-2.941,91.23-13.975,101.972-17.426l2.705-0.869l0.313-6.577
		c0.619-12.979,6.176-31.247,17.859-58.719l4.465-10.498l-0.923-2.405c-0.507-1.323-2.935-7.156-5.395-12.962
		c-10.055-23.738-16.157-44.982-16.157-56.247v-4.798l-3.666-0.976c-15.912-4.235-73.725-14.033-99.267-16.824
		c-6.129-0.669-11.804-1.309-12.61-1.421C199.194,29.592,192.331,30.225,184.751,31.111 M209.519,35.8
		c20.487,2.288,70.204,10.309,90.774,14.646c11.613,2.448,10.557,1.89,10.557,5.584c0,10.631,9.679,41.661,20.408,65.426
		c1.207,2.675,1.581,4.15,1.216,4.802c-7.862,14.049-21.624,57.23-21.624,67.851v3.363l-11.876,2.432
		c-25.042,5.129-67.787,12.019-88.516,14.269l-12.123,1.316l-11.631-1.32c-21.959-2.492-67.461-9.876-89.663-14.551l-9.998-2.105
		l-0.669-6.235c-1.426-13.277-7.027-30.835-18.911-59.28l-2.92-6.987l1.517-3.415c10.568-23.799,18.923-49.529,20.294-62.5
		c0.508-4.806,0.884-6.366,1.584-6.581c11.614-3.557,92.195-16.645,109.851-17.842C198.347,34.635,203.625,35.142,209.519,35.8
		 M185.63,43.113c-20.505,2.469-55.835,8.171-78.719,12.704l-12.444,2.464l-0.305,2.678c-1.538,13.503-7.517,32.903-17.064,55.366
		l-3.698,8.7l2.061,4.789c9.923,23.063,17.01,45.087,18.348,57.022c0.609,5.43-0.436,4.645,8.884,6.678
		c40.337,8.799,90.758,15.431,105.518,13.879c21.021-2.211,63.036-8.931,84.892-13.579c5.239-1.114,9.629-2.025,9.755-2.025
		c0.127,0,0.41-1.782,0.628-3.959c1.117-11.16,8.021-33.148,17.446-55.572c2.468-5.87,2.86-7.281,2.366-8.504
		c-13.194-32.617-17.971-47.244-19.705-60.343l-0.66-4.984l-7.332-1.612c-21.687-4.77-91.595-15.556-97.918-15.108
		C197.183,41.742,191.76,42.375,185.63,43.113 M206.123,63.082c3.89,0.782,7.667,1.561,8.393,1.732
		c1.231,0.29,1.32,0.623,1.32,4.943v4.633l-2.679,1.023c-2.215,0.846-2.629,1.235-2.389,2.248c0.16,0.673,1.003,4.833,1.874,9.244
		c1.504,7.618,1.66,8.039,3.122,8.395c8.921,2.177,9.897,3.605,5.208,7.619l-2.489,2.13l-0.351,8.912l-0.352,8.913l1.96,2.925
		c1.079,1.608,1.961,3.474,1.961,4.146c0,1.095-11.318,11.431-15.107,13.797c-0.997,0.623-3.131-0.105-15.605-5.328l-14.449-6.049
		l-0.019-2.693c-0.011-1.481-0.516-15.097-1.124-30.259c-0.607-15.161-0.973-27.697-0.812-27.859
		c1.369-1.374,21.844-10.427,23.033-10.184C198.405,61.53,202.232,62.301,206.123,63.082 M185.484,67.872l-9.531,4.443l0.021,2.112
		c0.066,6.627,2.227,57.049,2.455,57.276c0.548,0.549,25.391,10.123,25.636,9.88c0.139-0.138-0.863-1.868-2.227-3.845l-2.48-3.594
		l0.41-11.654l0.41-11.654l2.55-2.351c3.783-3.487,3.496-4.18-2.564-6.197l-5.115-1.701l-2.684-12.699l-2.683-12.698l3.106-1.287
		l3.106-1.288v-4.636c0-2.55-0.198-4.617-0.439-4.593C195.213,63.41,190.726,65.428,185.484,67.872 M194.134,79.032
		c0,0.999,2.988,16.693,3.243,17.032c0.115,0.153,12.676-2.83,13.036-3.095c0.083-0.061-0.511-3.357-1.319-7.324
		c-0.808-3.968-1.469-7.31-1.469-7.427c0-0.116-3.036-0.212-6.745-0.212C194.847,78.006,194.135,78.114,194.134,79.032
		 M154.661,166.195c0.828,0.829-1.095,6.961-2.28,7.271c-1.027,0.269-1.122,0.625-0.779,2.909c0.539,3.598-1.99,3.614-2.878,0.018
		c-0.637-2.579-1.923-2.889-2.428-0.587c-0.194,0.888-0.455,1.943-0.579,2.346c-0.255,0.828-2.608,1.019-2.608,0.212
		c0-1.076,2.356-11.923,2.716-12.506C146.218,165.222,153.984,165.519,154.661,166.195 M187.342,165.752
		c1.195,0.459,1.192,2.886-0.012,7.818c-1.09,4.467-1.921,5.319-5.184,5.308c-4.211-0.015-5.008-0.45-4.661-2.546
		c1.061-6.429,2.187-9.876,3.381-10.359C182.345,165.376,186.034,165.25,187.342,165.752 M197.507,165.766
		c2.818,0.755,1.643,2.744-1.356,2.294c-2.78-0.417-4.362,0.238-4.362,1.807c0,0.541,0.726,0.81,2.199,0.816
		c3.679,0.015,4.861,3.237,2.548,6.947c-1.204,1.931-8.853,1.514-8.853-0.483c0-0.997,0.395-1.116,3.373-1.015
		c3.275,0.111,3.377,0.068,3.558-1.499c0.171-1.486,0.025-1.612-1.858-1.612c-3.99,0-4.443-0.661-3.293-4.799
		c0.331-1.195,1.051-2.278,1.609-2.425C192.627,165.389,196.04,165.372,197.507,165.766 M213.381,165.776
		c1.517,0.406,1.496,1.104-0.283,9.151c-0.71,3.209-1.089,3.959-2.001,3.959c-1.362,0-1.41-1.126-0.27-6.444
		c0.62-2.893,0.651-3.912,0.126-4.252c-1.656-1.073-2.378-0.061-3.422,4.794c-1.134,5.269-1.658,6.255-3.043,5.724
		c-0.757-0.291-0.725-0.994,0.25-5.458c1.234-5.646,1.211-5.803-0.805-5.297c-1.222,0.306-1.544,1.007-2.527,5.495
		c-0.979,4.469-1.299,5.169-2.44,5.332c-1.56,0.223-1.567,0.131-0.407-4.99c1.382-6.098,2.004-7.711,3.087-7.996
		C203.199,165.384,211.871,165.371,213.381,165.776 M223.706,165.752c2.49,0.956,0.998,2.626-1.992,2.23
		c-3.358-0.446-3.724,0.018-4.476,5.689l-0.403,3.043l3.019-0.401c2.471-0.327,3.02-0.24,3.02,0.479c0,1.748-4.389,2.71-7.975,1.747
		c-1.381-0.37-1.374-0.673,0.19-7.774c0.724-3.29,1.237-4.425,2.167-4.802C218.712,165.374,222.406,165.253,223.706,165.752
		 M241.387,167.082c-1.67,5.533-1.329,7.228,0.842,4.179c0.804-1.129,1.764-1.76,2.679-1.76c1.792,0,1.781,0.2-0.142,2.722
		c-1.418,1.858-1.502,2.24-0.88,3.961c0.931,2.576,0.898,2.702-0.72,2.702c-1.038,0-1.57-0.463-2.022-1.76
		c-0.767-2.199-1.711-2.27-1.955-0.147c-0.21,1.819-2.825,2.801-2.825,1.061c0-1.122,2.278-11.473,2.661-12.094
		C239.56,165.081,241.683,166.101,241.387,167.082 M168.622,168.328c-0.317,0.999-0.106,1.173,1.426,1.173
		c1.983,0,2.078,0.144,1.192,1.799c-0.335,0.627-1.223,1.134-1.984,1.134c-0.932,0-1.491,0.426-1.731,1.32
		c-0.688,2.569-0.481,2.954,1.39,2.58c1.935-0.387,2.045-0.251,1.152,1.417c-0.409,0.764-1.222,1.132-2.492,1.126
		c-3.034-0.015-3.562-0.652-3.099-3.739c0.335-2.233,0.246-2.704-0.51-2.704c-1.361,0-1.117-0.927,0.743-2.83
		C167.187,167.069,169.233,166.402,168.622,168.328 M181.878,169.062c-0.273,0.725-0.682,2.243-0.909,3.372
		c-0.226,1.129-0.541,2.515-0.7,3.079c-0.504,1.789,3.199,1.391,3.886-0.417c1.532-4.027,1.431-7.354-0.223-7.354
		C182.856,167.742,182.222,168.15,181.878,169.062 M147.584,169.648c-0.543,2.026-0.468,2.2,0.95,2.191
		c1.74-0.012,2.539-0.588,3.039-2.191c0.373-1.193,0.218-1.32-1.612-1.32C148.358,168.328,147.864,168.603,147.584,169.648
		 M162.253,170.386c1.046,2.726-0.331,4.981-3.042,4.981c-1.548,0-2.613,0.269-2.613,0.661c0,0.443,0.774,0.538,2.346,0.286
		c1.848-0.295,2.346-0.191,2.346,0.491c0,1.73-4.918,2.849-6.924,1.577c-0.962-0.61,0.478-7.565,1.731-8.359
		C157.48,169.146,161.877,169.405,162.253,170.386 M177.603,170.528c-0.108,0.564-0.771,1.109-1.475,1.209
		c-1.037,0.148-1.407,0.795-1.95,3.41c-0.645,3.107-1.833,4.481-2.918,3.377c-0.609-0.62,0.776-6.957,1.787-8.174
		C174.111,169.067,177.854,169.213,177.603,170.528 M236.225,171.261c0.303,2.871-1.219,7.331-2.501,7.331
		c-0.645,0-1.131-0.264-1.08-0.586c0.898-5.661,0.902-6.158,0.041-6.158c-0.597,0-1.011,0.873-1.287,2.714
		c-0.565,3.763-0.852,4.324-2.215,4.324c-1.207,0-1.265-3.043-0.116-6.039c0.263-0.683,0.089-0.999-0.547-0.999
		c-0.537,0-1.087,0.683-1.297,1.612c-1.112,4.912-1.217,5.136-2.478,5.32c-1.543,0.225-1.581-0.269-0.379-4.884
		c1.129-4.337,1.291-4.434,7.012-4.251C235.905,169.789,236.076,169.846,236.225,171.261 M254.36,170.45
		c0.781,2.036-0.584,3.951-3.338,4.685l-2.635,0.703l2.493,0.057c2.699,0.063,2.795,0.157,1.885,1.856
		c-1.095,2.047-7.03,1.64-6.976-0.478c0.074-2.89,0.836-3.898,3.532-4.669l2.585-0.739l-2.493,0.229
		c-2.654,0.243-3.057-0.185-1.571-1.671C249.119,169.147,253.867,169.166,254.36,170.45 M157.478,172.434
		c-0.199,0.323,0.181,0.587,0.845,0.587s1.208-0.264,1.208-0.587c0-0.323-0.381-0.586-0.845-0.586
		C158.221,171.848,157.677,172.111,157.478,172.434 M167.401,189.212c1.226,0.471,1.207,2.577-0.024,2.577
		c-0.779,0-0.82-0.159-0.222-0.88c0.596-0.718,0.562-0.88-0.184-0.88c-0.592,0-0.998,0.672-1.151,1.906
		c-0.205,1.653-0.249,1.575-0.33-0.586C165.396,188.853,165.669,188.548,167.401,189.212 M172.909,191.682
		c-0.152,1.317-0.469,1.573-1.941,1.573c-2.119,0-2.867-2.353-1.148-3.61C171.363,188.517,173.139,189.688,172.909,191.682
		 M175.055,190.469c0.597-1.403,1.319-1.288,1.842,0.293l0.436,1.32l0.354-1.43c0.366-1.475,4.131-2.608,4.131-1.242
		c0,0.341-0.396,0.619-0.88,0.619c-0.483,0-0.879,0.264-0.879,0.587c0,0.322,0.528,0.586,1.173,0.586
		c0.645,0,1.173-0.38,1.173-0.845c0-1.143,0.949-1.651,2.292-1.224c0.824,0.261,1.095,0.875,1.052,2.384
		c-0.066,2.308-0.258,2.45-1.355,1.005c-0.742-0.978-0.78-0.978-0.798,0c-0.036,1.979-4.689,1.41-4.798-0.587l-0.088-1.612
		l-0.244,1.612c-0.296,1.954-1.184,2.09-1.915,0.294l-0.538-1.32l-0.398,1.344c-0.604,2.039-1.701,1.204-1.825-1.389
		c-0.092-1.899-0.029-2.045,0.359-0.835C174.555,191.297,174.678,191.356,175.055,190.469 M189.443,189.443
		c0,0.322-0.528,0.586-1.173,0.586c-1.62,0-1.485,1.154,0.146,1.253l1.32,0.08l-1.32,0.254c-0.725,0.14-1.319,0.482-1.319,0.759
		c0,0.278,0.594,0.62,1.319,0.759c1.132,0.218,1.09,0.266-0.293,0.335c-1.504,0.074-1.613-0.079-1.613-2.267
		c0-2.111,0.147-2.346,1.467-2.346C188.783,188.856,189.443,189.12,189.443,189.443 M192.175,189.212
		c2.543,0.682,1.947,4.336-0.709,4.336c-1.285,0-1.437-0.247-1.437-2.346C190.029,188.749,190.123,188.661,192.175,189.212
		 M197.899,189.212c1.689,0.648,1.231,4.336-0.538,4.336c-1.32,0-1.467-0.234-1.467-2.346
		C195.894,188.845,196.187,188.555,197.899,189.212 M202.064,189.736l0.964-1.173l-0.416,1.173
		c-0.229,0.645-0.546,1.767-0.703,2.493c-0.4,1.845-0.969,1.645-1.791-0.628c-0.937-2.591-0.889-3.218,0.139-1.83
		C201.091,190.896,201.112,190.895,202.064,189.736 M207.041,189.444c0.735,0.394,1.219,0.394,1.462,0
		c0.473-0.764,2.641-0.765,2.641-0.001c0,0.322-0.396,0.586-0.88,0.586c-1.418,0-1.009,1.166,0.44,1.253l1.319,0.08l-1.319,0.254
		c-0.726,0.14-1.32,0.482-1.32,0.759c0,0.278,0.594,0.62,1.32,0.759c0.748,0.145,0.291,0.289-1.056,0.335
		c-1.306,0.043-2.692-0.237-3.079-0.624c-0.547-0.548-0.704-0.548-0.704,0c0,0.387-0.264,0.703-0.586,0.703
		c-0.323,0-0.587-1.055-0.587-2.346C204.692,188.78,205.154,188.435,207.041,189.444 M218.808,190.074
		c0.297,0.469,0.533,0.544,0.538,0.17c0.013-1.007,2.17-1.359,3.294-0.537c0.712,0.521,0.883,1.167,0.602,2.284
		c-0.485,1.932-2.929,2.174-3.887,0.384c-0.345-0.645-0.892-1.173-1.214-1.173c-0.378,0-0.363,0.419,0.041,1.173
		c0.787,1.472-0.274,1.61-1.126,0.147c-0.57-0.978-0.599-0.978-0.616,0c-0.01,0.565-0.282,1.026-0.604,1.026
		c-0.323,0-0.587-0.791-0.587-1.759s-0.264-1.76-0.586-1.76c-0.323,0-0.587,0.792-0.587,1.76s-0.264,1.759-0.586,1.759
		c-0.323,0-0.587-0.791-0.587-1.759s-0.264-1.76-0.586-1.76c-0.323,0-0.587-0.266-0.587-0.592
		C211.73,188.51,218.186,189.091,218.808,190.074 M226.052,189.212c1.226,0.471,1.207,2.577-0.024,2.577
		c-0.779,0-0.82-0.159-0.222-0.88c0.596-0.718,0.562-0.88-0.184-0.88c-0.592,0-0.998,0.672-1.151,1.906
		c-0.205,1.653-0.249,1.575-0.33-0.586C224.047,188.853,224.32,188.548,226.052,189.212 M232.258,189.443
		c0,0.322-0.528,0.586-1.173,0.586c-1.62,0-1.485,1.154,0.147,1.253l1.319,0.08l-1.319,0.254c-0.726,0.14-1.32,0.482-1.32,0.759
		c0,0.278,0.594,0.62,1.32,0.759c1.131,0.218,1.089,0.266-0.294,0.335c-1.504,0.074-1.612-0.079-1.612-2.267
		c0-2.111,0.146-2.346,1.466-2.346C231.598,188.856,232.258,189.12,232.258,189.443 M228.739,191.496
		c0,1.129-0.264,2.052-0.587,2.052c-0.322,0-0.586-0.923-0.586-2.052s0.264-2.053,0.586-2.053
		C228.475,189.443,228.739,190.367,228.739,191.496 M169.779,190.642c-0.208,0.336-0.057,0.999,0.336,1.473
		c0.876,1.055,2.427,0.05,1.928-1.249C171.668,189.89,170.326,189.757,169.779,190.642 M190.616,191.496
		c0,1.162,0.257,1.502,1.026,1.354c0.565-0.108,1.027-0.718,1.027-1.354c0-0.637-0.462-1.246-1.027-1.355
		C190.873,189.993,190.616,190.333,190.616,191.496 M196.481,191.496c0,0.806,0.236,1.466,0.524,1.466
		c0.289,0,0.487-0.66,0.44-1.466C197.335,189.585,196.481,189.585,196.481,191.496 M220.138,190.949
		c-0.423,1.103,0.615,2.305,1.512,1.751c0.967-0.597,0.764-2.671-0.261-2.671C220.895,190.029,220.332,190.443,220.138,190.949
		 M207.3,191.253c-0.217,0.351-0.101,0.932,0.258,1.291c0.48,0.479,0.653,0.31,0.653-0.638
		C208.211,190.49,207.906,190.272,207.3,191.253 M180.059,192.375c0,0.323,0.528,0.587,1.173,0.587c0.645,0,1.173-0.264,1.173-0.587
		c0-0.322-0.528-0.586-1.173-0.586C180.587,191.789,180.059,192.053,180.059,192.375"/>
</g>
</svg>
