<?xml version="1.0" encoding="utf-8"?>
<!DOCTYPE svg PUBLIC "-//W3C//DTD SVG 1.1//EN" "http://www.w3.org/Graphics/SVG/1.1/DTD/svg11.dtd">
<svg version="1.1" xmlns="http://www.w3.org/2000/svg" >
<g>
	<g id="g38" transform="translate(-329.39651,-160.74657)">
		<g id="g4">
			<path id="path2" inkscape:connector-curvature="0" fill="#FFFFFF" stroke="#000000" stroke-miterlimit="10" d="M499.405,404.639
				h-28.012c-1.698,0-2.83-1.079-2.83-2.697V354.74c0-1.618,1.132-2.697,2.83-2.697h28.012c1.698,0,2.829,1.079,2.829,2.697v47.202
				C502.235,403.29,501.103,404.639,499.405,404.639z M474.221,399.244h22.353v-41.808h-22.353V399.244z"/>
		</g>
		<g id="g8">
			<path id="path6" inkscape:connector-curvature="0" fill="#FFFFFF" stroke="#000000" stroke-miterlimit="10" d="M485.258,375.239
				c-1.698,0-2.83-1.079-2.83-2.697v-7.552c0-1.618,1.132-2.697,2.83-2.697s2.829,1.079,2.829,2.697v7.552
				C488.087,374.16,486.955,375.239,485.258,375.239z"/>
		</g>
		<g id="g12">
			<path id="path10" inkscape:connector-curvature="0" fill="#FFFFFF" stroke="#000000" stroke-miterlimit="10" d="M485.54,302.952
				H409.71c-6.225,0-11.318-4.855-11.318-10.789v-42.077c0-5.934,5.093-10.789,11.318-10.789h75.831
				c6.225,0,11.318,4.855,11.318,10.789v42.077C496.858,298.367,491.764,302.952,485.54,302.952z M409.708,244.691
				c-3.112,0-5.659,2.428-5.659,5.395v42.077c0,2.967,2.547,5.395,5.659,5.395h75.831c3.112,0,5.659-2.428,5.659-5.395v-42.077
				c0-2.967-2.547-5.395-5.659-5.395C485.539,244.691,409.708,244.691,409.708,244.691z"/>
		</g>
		<path id="path14" inkscape:connector-curvature="0" fill="#FFFFFF" stroke="#000000" stroke-miterlimit="10" d="M513.836,234.441
			c1.698,0,2.829-1.079,2.829-2.697v-27.512c0-1.618-1.132-2.697-2.829-2.697H381.413c-1.698,0-2.83,1.079-2.83,2.697v27.512
			c0,1.618,1.132,2.697,2.83,2.697h4.244v81.997l-7.074,21.039c0,0.27,0,0.539,0,0.809v103.845c0,1.618,1.132,2.697,2.83,2.697
			h132.421c1.698,0,2.829-1.079,2.829-2.697V338.286c0-0.27,0-0.539,0-0.809l-7.074-21.039v-81.997H513.836z M511.006,439.434
			H384.243v-96.832h126.762L511.006,439.434z M510.44,337.207H384.81l5.376-16.723h50.365c1.132,1.349,2.547,2.158,4.244,2.697
			v5.395h-0.849c-1.698,0-2.83,1.079-2.83,2.697s1.132,2.697,2.83,2.697h7.357c1.698,0,2.829-1.079,2.829-2.697
			c0-1.618-1.132-2.697-2.829-2.697h-0.849v-5.395c1.698-0.539,3.112-1.618,4.244-2.697l0,0h50.082L510.44,337.207z
			 M503.649,315.359h-46.97c0-4.855-3.961-8.631-9.054-8.631s-9.054,3.776-9.054,8.631h-47.253v-80.918h112.615L503.649,315.359z
			 M451.02,315.359c0,1.888-1.415,3.237-3.395,3.237l0,0l0,0c-1.698,0-3.395-1.349-3.395-3.237s1.415-3.237,3.395-3.237
			C449.606,312.123,451.02,313.471,451.02,315.359z M384.243,229.047v-22.118h126.762v22.118H384.243z"/>
		<g id="g18">
			
				<ellipse id="ellipse16" fill="#FFFFFF" stroke="#000000" stroke-miterlimit="10" cx="485.258" cy="388.186" rx="5.093" ry="4.855"/>
		</g>
		<g id="g36">
			<path id="path20" inkscape:connector-curvature="0" fill="#FFFFFF" stroke="#000000" stroke-miterlimit="10" d="M396.746,209.467
				c1.342-0.26,3.371-0.425,5.37-0.425c1.909,0,3.878,0.236,5.28,0.92c1.313,0.614,2.237,1.629,2.237,3.116
				c0,2.361-1.999,3.824-4.564,4.485v0.094c1.193,0.401,1.7,1.463,1.909,2.903c0.239,1.771,0.417,3.848,0.775,4.509h-4.415
				c-0.179-0.425-0.388-1.794-0.596-3.753c-0.179-1.936-1.015-2.525-2.715-2.525h-1.313l-1.492,6.279h-4.266L396.746,209.467z
				 M399.341,216.242h1.79c2.327,0,4.027-1.109,4.027-2.667c0-1.275-1.372-1.841-3.073-1.841c-0.805,0-1.313,0.047-1.67,0.118
				L399.341,216.242z"/>
			<path id="path22" inkscape:connector-curvature="0" fill="#FFFFFF" stroke="#000000" stroke-miterlimit="10" d="M422.047,224.409
				c-1.701,0.685-3.818,0.897-5.429,0.897c-4.177,0-6.324-1.865-6.324-4.862c0-3.518,3.222-7.176,8.501-7.176
				c2.954,0,5.071,1.298,5.071,3.446c0,2.951-3.609,4.013-9.456,3.895c0,0.331,0.149,0.85,0.447,1.18
				c0.567,0.59,1.551,0.897,2.804,0.897c1.581,0,2.923-0.283,4.087-0.731L422.047,224.409z M418.259,215.746
				c-1.999,0-3.132,1.298-3.431,2.384c3.341,0.023,5.012-0.354,5.012-1.393C419.84,216.147,419.243,215.746,418.259,215.746z"/>
			<path id="path24" inkscape:connector-curvature="0" fill="#FFFFFF" stroke="#000000" stroke-miterlimit="10" d="M433.059,210.293
				l-0.775,3.234h3.102l-0.626,2.573h-3.103l-0.984,3.918c-0.12,0.472-0.239,1.063-0.239,1.464c0,0.566,0.298,0.968,1.223,0.968
				c0.388,0,0.805,0,1.193-0.047l-0.507,2.667c-0.537,0.165-1.611,0.26-2.536,0.26c-2.565,0-3.789-1.039-3.789-2.479
				c0-0.638,0.089-1.275,0.298-2.148l1.134-4.603h-1.85l0.597-2.573h1.879l0.596-2.432L433.059,210.293z"/>
			<path id="path26" inkscape:connector-curvature="0" fill="#FFFFFF" stroke="#000000" stroke-miterlimit="10" d="M435.18,225.07
				l1.641-6.869c0.418-1.747,0.597-3.683,0.746-4.674h3.729c-0.089,0.779-0.179,1.558-0.268,2.36h0.089
				c1.014-1.534,2.655-2.62,4.653-2.62c0.269,0,0.537,0,0.806,0.023l-0.835,3.305c-0.208-0.024-0.447-0.024-0.686-0.024
				c-2.744,0-4.027,1.936-4.564,4.202l-1.014,4.296h-4.297L435.18,225.07z"/>
			<path id="path28" inkscape:connector-curvature="0" fill="#FFFFFF" stroke="#000000" stroke-miterlimit="10" d="M461.612,218.012
				c0,4.226-3.639,7.318-8.71,7.318c-3.699,0-6.175-1.912-6.175-4.769c0-4.013,3.52-7.294,8.71-7.294
				C459.346,213.267,461.612,215.392,461.612,218.012z M451.172,220.491c0,1.346,0.835,2.243,2.327,2.243
				c2.356,0,3.669-2.715,3.669-4.697c0-1.063-0.567-2.195-2.297-2.195C452.395,215.841,451.142,218.697,451.172,220.491z"/>
			<path id="path30" inkscape:connector-curvature="0" fill="#FFFFFF" stroke="#000000" stroke-miterlimit="10" d="M466.807,209.467
				c1.282-0.26,3.311-0.425,5.25-0.425c1.79,0,3.878,0.236,5.34,1.062c1.343,0.732,2.178,1.841,2.178,3.375
				c0,2.006-1.164,3.517-2.745,4.485c-1.641,1.015-3.967,1.463-6.413,1.463c-0.716,0-1.313-0.047-1.76-0.095l-1.372,5.736h-4.207
				L466.807,209.467z M469.313,216.572c0.447,0.071,0.925,0.118,1.641,0.118c2.595,0,4.296-1.322,4.296-2.903
				c0-1.535-1.402-2.03-3.073-2.03c-0.806,0-1.372,0.047-1.73,0.118L469.313,216.572z"/>
			<path id="path32" inkscape:connector-curvature="0" fill="#FFFFFF" stroke="#000000" stroke-miterlimit="10" d="M479.488,225.07
				l2.774-11.543h4.296l-2.774,11.543H479.488z M482.859,210.435c0.029-1.157,1.163-1.936,2.476-1.936
				c1.253,0,2.148,0.661,2.148,1.676c0,1.204-1.164,1.912-2.536,1.912C483.755,212.087,482.859,211.45,482.859,210.435z"/>
			<path id="path34" inkscape:connector-curvature="0" fill="#FFFFFF" stroke="#000000" stroke-miterlimit="10" d="M499.598,224.409
				c-1.7,0.685-3.818,0.897-5.43,0.897c-4.176,0-6.324-1.865-6.324-4.862c0-3.518,3.222-7.176,8.502-7.176
				c2.953,0,5.071,1.298,5.071,3.446c0,2.951-3.609,4.013-9.456,3.895c0,0.331,0.149,0.85,0.447,1.18
				c0.566,0.59,1.551,0.897,2.804,0.897c1.581,0,2.924-0.283,4.087-0.731L499.598,224.409z M495.809,215.746
				c-1.998,0-3.132,1.298-3.431,2.384c3.342,0.023,5.012-0.354,5.012-1.393C497.389,216.147,496.793,215.746,495.809,215.746z"/>
		</g>
	</g>
	<g id="g80" transform="matrix(1.4112706,0,0,1.5826112,-450.40718,-239.98887)">
		<g id="g78">
			<g id="g76">
				<g>
					<path id="path72_1_" inkscape:connector-curvature="0" fill="#FFFFFF" d="M402.306,236.417
						c-8.572-0.164-15.061-6.68-15.106-15.059c-0.045-8.299,6.817-15.02,15.223-15.004c8.218,0.015,14.964,6.823,14.953,15.09
						C417.365,229.667,410.565,236.423,402.306,236.417L402.306,236.417z M402.352,234.682c7.392-0.002,13.289-5.904,13.289-13.299
						c0-7.394-5.899-13.294-13.291-13.296c-7.503-0.002-13.427,5.866-13.427,13.299
						C388.924,228.818,394.849,234.685,402.352,234.682L402.352,234.682z"/>
					<path d="M402.317,236.607h-0.011c-8.689-0.166-15.273-6.722-15.319-15.248c-0.023-4.263,1.807-8.36,5.021-11.239
						c2.847-2.551,6.535-3.956,10.386-3.956c8.404,0.015,15.208,6.87,15.196,15.281
						C417.578,229.805,410.727,236.607,402.317,236.607z M402.423,206.544c-3.766,0-7.347,1.365-10.113,3.844
						c-3.134,2.808-4.919,6.806-4.896,10.969c0.045,8.315,6.449,14.708,14.897,14.87l0.006,0.19v-0.19
						c8.175,0,14.835-6.632,14.846-14.783C417.174,213.243,410.561,206.559,402.423,206.544z M402.352,234.872
						c-7.651-0.001-13.641-5.924-13.642-13.486c0-7.564,5.99-13.489,13.636-13.489h0.004c7.573,0.002,13.505,5.926,13.505,13.486
						C415.854,228.945,409.923,234.87,402.352,234.872z M402.346,208.087v0.19c-7.407,0-13.209,5.758-13.209,13.108
						c0.001,7.349,5.803,13.105,13.209,13.106c7.338-0.002,13.081-5.76,13.081-13.108c0-7.347-5.744-13.104-13.078-13.106
						L402.346,208.087z"/>
				</g>
				<g>
					<path id="path74_1_" inkscape:connector-curvature="0" fill="#FFFFFF" d="M406.578,218.522
						c-0.981,0.889-2.005,1.736-2.935,2.677c-1.989,2.012-3.929,4.073-5.888,6.115c-0.284,0.296-0.554,0.605-0.837,0.902
						c-0.095,0.1-0.189,0.256-0.349,0.207c-0.17-0.052-0.135-0.232-0.144-0.371c-0.008-0.123-0.004-0.246-0.004-0.369
						c0-4.204,0-8.409,0-12.613c0-0.123-0.004-0.246,0.005-0.369c0.008-0.118-0.021-0.266,0.12-0.321
						c0.143-0.056,0.218,0.077,0.3,0.16c0.521,0.523,1.038,1.05,1.557,1.575c1.154,1.167,2.318,2.323,3.456,3.505
						c0.339,0.352,0.573,0.411,0.943,0.026c1.62-1.685,3.265-3.347,4.904-5.013c0.12-0.122,0.214-0.354,0.434-0.261
						c0.179,0.076,0.121,0.288,0.121,0.444c0.003,3.774,0.006,7.548-0.001,11.321c-0.001,0.717-0.338,1.109-0.883,1.1
						c-0.537-0.01-0.848-0.402-0.85-1.132c-0.008-2.359-0.001-4.717-0.007-7.076C406.519,218.812,406.587,218.581,406.578,218.522
						L406.578,218.522z M398.196,224.117c0.852-0.786,1.733-1.607,2.626-2.417c0.303-0.275,0.261-0.496-0.01-0.765
						c-0.638-0.634-1.254-1.29-1.891-1.925c-0.22-0.219-0.365-0.529-0.725-0.681C398.196,220.348,398.196,222.301,398.196,224.117
						L398.196,224.117z"/>
					<path d="M396.628,228.622c-0.043,0-0.086-0.007-0.128-0.02c-0.283-0.087-0.285-0.338-0.286-0.473l-0.002-0.068
						c-0.006-0.097-0.006-0.194-0.005-0.291l0-0.089l0-12.696c-0.001-0.099-0.001-0.199,0.006-0.298l0.001-0.055
						c0.001-0.116,0.003-0.333,0.246-0.428c0.049-0.019,0.101-0.029,0.152-0.029c0.184,0,0.293,0.124,0.358,0.198l0.036,0.039
						c0.33,0.331,0.658,0.665,0.987,0.998l1.579,1.594c0.82,0.826,1.641,1.651,2.448,2.489c0.143,0.149,0.252,0.224,0.324,0.224
						c0.048,0,0.139-0.034,0.296-0.198c1.332-1.386,2.703-2.778,4.029-4.124l0.876-0.89c0.022-0.023,0.043-0.05,0.065-0.078
						c0.083-0.107,0.209-0.269,0.433-0.269c0.063,0,0.126,0.013,0.189,0.04c0.274,0.116,0.257,0.377,0.247,0.533
						c-0.002,0.029-0.004,0.057-0.004,0.083c0.003,3.774,0.006,7.548-0.001,11.321c-0.001,0.808-0.404,1.29-1.078,1.29
						c-0.34-0.006-1.078-0.147-1.082-1.322c-0.004-1.268-0.004-2.536-0.004-3.804c0-1.089,0-2.178-0.003-3.267
						c-0.166,0.147-0.333,0.294-0.5,0.441c-0.672,0.592-1.367,1.204-2.004,1.848c-1.43,1.447-2.859,2.944-4.24,4.391
						c-0.548,0.574-1.096,1.149-1.646,1.722c-0.146,0.152-0.289,0.309-0.431,0.464c-0.134,0.147-0.268,0.293-0.405,0.437
						l-0.043,0.048C396.957,228.48,396.834,228.622,396.628,228.622z M396.642,214.617c0,0.007,0,0.014,0,0.02l-0.002,0.075
						c-0.007,0.091-0.006,0.181-0.005,0.272l0,0.086l-0.001,12.705c-0.001,0.089-0.001,0.178,0.004,0.266l0.002,0.087
						c0,0.025,0.001,0.061,0.003,0.089c0.02-0.019,0.042-0.045,0.057-0.063l0.055-0.061c0.135-0.142,0.267-0.287,0.4-0.431
						c0.145-0.158,0.289-0.317,0.438-0.471c0.549-0.573,1.097-1.146,1.645-1.721c1.383-1.449,2.813-2.947,4.245-4.397
						c0.647-0.654,1.347-1.271,2.024-1.867c0.308-0.271,0.616-0.542,0.919-0.817l0.305-0.276l0.058,0.384
						c0.008,0.052-0.002,0.109-0.019,0.203c-0.016,0.091-0.038,0.212-0.037,0.329c0.003,1.092,0.002,2.183,0.002,3.274
						c0,1.267,0,2.535,0.005,3.803c0.001,0.425,0.113,0.932,0.641,0.942c0,0,0,0,0,0c0.579,0,0.664-0.57,0.665-0.91
						c0.007-3.773,0.004-7.547,0.001-11.321c0-0.034,0.002-0.069,0.005-0.106c0.003-0.051,0.01-0.145-0.006-0.169
						c-0.01,0.008-0.057,0.069-0.085,0.105c-0.031,0.04-0.063,0.08-0.095,0.112l-0.877,0.891c-1.325,1.346-2.696,2.737-4.026,4.121
						c-0.136,0.142-0.349,0.331-0.62,0.331c-0.267,0-0.477-0.18-0.647-0.357c-0.806-0.837-1.624-1.661-2.443-2.485l-1.581-1.596
						c-0.328-0.333-0.656-0.666-0.986-0.997L396.642,214.617z M397.982,224.587v-6.559l0.305,0.129
						c0.301,0.127,0.471,0.339,0.62,0.525c0.056,0.07,0.111,0.139,0.172,0.2c0.311,0.31,0.617,0.625,0.923,0.94
						c0.321,0.33,0.641,0.661,0.968,0.985c0.364,0.362,0.365,0.697,0.003,1.025c-0.641,0.582-1.277,1.169-1.899,1.745
						L397.982,224.587z M398.409,218.724v4.922l0.358-0.331c0.623-0.577,1.26-1.165,1.902-1.748
						c0.204-0.185,0.201-0.289-0.017-0.504c-0.328-0.326-0.651-0.658-0.973-0.99c-0.304-0.313-0.609-0.627-0.918-0.935
						c-0.071-0.071-0.136-0.151-0.202-0.233C398.51,218.841,398.462,218.78,398.409,218.724z"/>
				</g>
			</g>
		</g>
	</g>
</g>
</svg>