<?xml version="1.0" encoding="utf-8"?>
<svg version="1.1" xmlns="http://www.w3.org/2000/svg" >
<title>17_ArcadeGame</title>
<g>
	<g>
		<path fill="#FFFFFF" stroke="#000000" stroke-miterlimit="10" d="M349.42,269.508h-28.012c-1.698,0-2.83-1.079-2.83-2.697v-47.202
			c0-1.618,1.132-2.697,2.83-2.697h28.012c1.698,0,2.829,1.079,2.829,2.697v47.202C352.25,268.159,351.118,269.508,349.42,269.508z
			 M324.237,264.113h22.353v-41.808h-22.353V264.113z"/>
	</g>
	<g>
		<path fill="#FFFFFF" stroke="#000000" stroke-miterlimit="10" d="M335.273,240.108c-1.698,0-2.83-1.079-2.83-2.697v-7.552
			c0-1.618,1.132-2.697,2.83-2.697c1.698,0,2.829,1.079,2.829,2.697v7.552C338.102,239.029,336.97,240.108,335.273,240.108z"/>
	</g>
	<g>
		<path fill="#FFFFFF" stroke="#000000" stroke-miterlimit="10" d="M335.556,167.821h-75.831c-6.225,0-11.318-4.855-11.318-10.789
			v-42.077c0-5.934,5.093-10.789,11.318-10.789h75.831c6.225,0,11.318,4.855,11.318,10.789v42.077
			C346.874,163.236,341.78,167.821,335.556,167.821z M259.724,109.56c-3.112,0-5.659,2.428-5.659,5.395v42.077
			c0,2.967,2.547,5.395,5.659,5.395h75.831c3.112,0,5.659-2.428,5.659-5.395v-42.077c0-2.967-2.547-5.395-5.659-5.395H259.724z"/>
	</g>
	<path fill="#FFFFFF" stroke="#000000" stroke-miterlimit="10" d="M363.851,99.31c1.698,0,2.829-1.079,2.829-2.697V69.101
		c0-1.618-1.132-2.697-2.829-2.697H231.429c-1.698,0-2.83,1.079-2.83,2.697v27.512c0,1.618,1.132,2.697,2.83,2.697h4.244v81.997
		l-7.074,21.039c0,0.27,0,0.539,0,0.809V307c0,1.618,1.132,2.697,2.83,2.697h132.421c1.698,0,2.829-1.079,2.829-2.697V203.155
		c0-0.27,0-0.539,0-0.809l-7.074-21.039V99.31H363.851z M361.021,304.303H234.259v-96.832h126.762V304.303z M360.455,202.076
		H234.825l5.376-16.723h50.365c1.132,1.349,2.547,2.158,4.244,2.697v5.395h-0.849c-1.698,0-2.83,1.079-2.83,2.697
		c0,1.618,1.132,2.697,2.83,2.697h7.357c1.698,0,2.829-1.079,2.829-2.697c0-1.618-1.132-2.697-2.829-2.697h-0.849v-5.395
		c1.698-0.539,3.112-1.618,4.244-2.697l0,0h50.082L360.455,202.076z M353.664,180.228h-46.97c0-4.855-3.961-8.631-9.054-8.631
		c-5.093,0-9.054,3.776-9.054,8.631h-47.253V99.31h112.615L353.664,180.228L353.664,180.228z M301.035,180.228
		c0,1.888-1.415,3.237-3.395,3.237l0,0l0,0c-1.698,0-3.395-1.349-3.395-3.237c0-1.888,1.415-3.237,3.395-3.237
		C299.621,176.992,301.035,178.34,301.035,180.228z M234.259,93.916V71.798h126.762v22.118H234.259z"/>
	<g>
		<ellipse fill="#FFFFFF" stroke="#000000" stroke-miterlimit="10" cx="335.273" cy="253.055" rx="5.093" ry="4.855"/>
	</g>
	<g>
		<path fill="#FFFFFF" stroke="#000000" stroke-miterlimit="10" d="M246.762,74.336c1.342-0.26,3.371-0.425,5.37-0.425
			c1.909,0,3.878,0.236,5.28,0.92c1.313,0.614,2.237,1.629,2.237,3.116c0,2.361-1.999,3.824-4.564,4.485v0.094
			c1.193,0.401,1.7,1.463,1.909,2.903c0.239,1.771,0.417,3.848,0.775,4.509h-4.415c-0.179-0.425-0.388-1.794-0.596-3.753
			c-0.179-1.936-1.015-2.525-2.715-2.525h-1.313l-1.492,6.279h-4.266L246.762,74.336z M249.357,81.111h1.79
			c2.327,0,4.027-1.109,4.027-2.667c0-1.275-1.372-1.841-3.073-1.841c-0.805,0-1.313,0.047-1.67,0.118L249.357,81.111z"/>
		<path fill="#FFFFFF" stroke="#000000" stroke-miterlimit="10" d="M272.063,89.278c-1.701,0.685-3.818,0.897-5.429,0.897
			c-4.177,0-6.324-1.865-6.324-4.862c0-3.518,3.222-7.176,8.501-7.176c2.954,0,5.071,1.298,5.071,3.446
			c0,2.951-3.609,4.013-9.456,3.895c0,0.331,0.149,0.85,0.447,1.18c0.567,0.59,1.551,0.897,2.804,0.897
			c1.581,0,2.923-0.283,4.087-0.731L272.063,89.278z M268.275,80.615c-1.999,0-3.132,1.298-3.431,2.384
			c3.341,0.023,5.012-0.354,5.012-1.393C269.856,81.016,269.259,80.615,268.275,80.615z"/>
		<path fill="#FFFFFF" stroke="#000000" stroke-miterlimit="10" d="M283.074,75.162l-0.775,3.234h3.102l-0.626,2.573h-3.103
			l-0.984,3.918c-0.12,0.472-0.239,1.063-0.239,1.464c0,0.566,0.298,0.968,1.223,0.968c0.388,0,0.805,0,1.193-0.047l-0.507,2.667
			c-0.537,0.165-1.611,0.26-2.536,0.26c-2.565,0-3.789-1.039-3.789-2.479c0-0.638,0.089-1.275,0.298-2.148l1.134-4.603h-1.85
			l0.597-2.573h1.879l0.596-2.432L283.074,75.162z"/>
		<path fill="#FFFFFF" stroke="#000000" stroke-miterlimit="10" d="M285.195,89.939l1.641-6.869
			c0.418-1.747,0.597-3.683,0.746-4.674h3.729c-0.089,0.779-0.179,1.558-0.268,2.36h0.089c1.014-1.534,2.655-2.62,4.653-2.62
			c0.269,0,0.537,0,0.806,0.023l-0.835,3.305c-0.208-0.024-0.447-0.024-0.686-0.024c-2.744,0-4.027,1.936-4.564,4.202l-1.014,4.296
			H285.195z"/>
		<path fill="#FFFFFF" stroke="#000000" stroke-miterlimit="10" d="M311.627,82.881c0,4.226-3.639,7.318-8.71,7.318
			c-3.699,0-6.175-1.912-6.175-4.769c0-4.013,3.52-7.294,8.71-7.294C309.361,78.136,311.627,80.261,311.627,82.881z M301.187,85.36
			c0,1.346,0.835,2.243,2.327,2.243c2.356,0,3.669-2.715,3.669-4.697c0-1.063-0.567-2.195-2.297-2.195
			C302.41,80.71,301.157,83.566,301.187,85.36z"/>
		<path fill="#FFFFFF" stroke="#000000" stroke-miterlimit="10" d="M316.823,74.336c1.282-0.26,3.311-0.425,5.25-0.425
			c1.79,0,3.878,0.236,5.34,1.062c1.343,0.732,2.178,1.841,2.178,3.375c0,2.006-1.164,3.517-2.745,4.485
			c-1.641,1.015-3.967,1.463-6.413,1.463c-0.716,0-1.313-0.047-1.76-0.095l-1.372,5.736h-4.207L316.823,74.336z M319.328,81.441
			c0.447,0.071,0.925,0.118,1.641,0.118c2.595,0,4.296-1.322,4.296-2.903c0-1.535-1.402-2.03-3.073-2.03
			c-0.806,0-1.372,0.047-1.73,0.118L319.328,81.441z"/>
		<path fill="#FFFFFF" stroke="#000000" stroke-miterlimit="10" d="M329.504,89.939l2.774-11.543h4.296L333.8,89.939H329.504z
			 M332.875,75.304c0.029-1.157,1.163-1.936,2.476-1.936c1.253,0,2.148,0.661,2.148,1.676c0,1.204-1.164,1.912-2.536,1.912
			C333.77,76.956,332.875,76.319,332.875,75.304z"/>
		<path fill="#FFFFFF" stroke="#000000" stroke-miterlimit="10" d="M349.613,89.278c-1.7,0.685-3.818,0.897-5.43,0.897
			c-4.176,0-6.324-1.865-6.324-4.862c0-3.518,3.222-7.176,8.502-7.176c2.953,0,5.071,1.298,5.071,3.446
			c0,2.951-3.609,4.013-9.456,3.895c0,0.331,0.149,0.85,0.447,1.18c0.566,0.59,1.551,0.897,2.804,0.897
			c1.581,0,2.924-0.283,4.087-0.731L349.613,89.278z M345.824,80.615c-1.998,0-3.132,1.298-3.431,2.384
			c3.342,0.023,5.012-0.354,5.012-1.393C347.405,81.016,346.808,80.615,345.824,80.615z"/>
	</g>
	<g>
		<g>
			<g>
				<path fill="#FFFFFF" stroke="#000000" stroke-miterlimit="10" d="M130.924,378.399c2.215-6.697,4.442-13.04,6.675-19.06
					c-1.346-0.784-2.685-1.572-4.018-2.365c-4.294,4.291-8.571,8.102-12.809,11.4c-2.37-2.392-4.708-4.785-7.017-7.172
					c11.55-6.522,23.511-17.08,35.434-30.938c3.891-0.205,7.787-0.489,11.683-0.833c1.724-0.153,3.158-0.03,4.305,0.436
					c1.146,0.466,1.859,1.391,2.142,2.814c0.28,1.423,0.053,3.41-0.687,5.924c-0.741,2.51-2.158,5.66-4.265,9.247
					c-2.615,4.453-5.312,7.84-8.084,10.046c-2.771,2.212-5.484,3.376-8.117,3.591c-2.298,7.769-4.58,16.031-6.831,24.839
					C136.49,383.708,133.686,381.061,130.924,378.399z M140.005,350.212c1.258,0.504,2.52,1.003,3.786,1.497
					c1.931,0.756,3.863,0.759,5.787-0.129c1.921-0.88,3.764-2.645,5.521-5.245c1.757-2.604,2.469-4.567,2.145-5.715
					c-0.326-1.157-1.453-1.783-3.383-1.966c-1.265-0.122-2.528-0.252-3.79-0.388C146.717,342.519,143.359,346.506,140.005,350.212z"
					/>
				<path fill="#FFFFFF" stroke="#000000" stroke-miterlimit="10" d="M154.353,401.266c-1.928-1.64-3.392-3.767-4.394-6.237
					c-1.003-2.475-1.483-5.174-1.448-8.069c0.034-2.898,0.605-5.906,1.706-9.115c1.1-3.213,2.787-6.564,5.052-10.277
					c2.192-3.593,4.511-6.784,6.955-9.674c2.443-2.888,4.817-5.402,7.125-7.509c2.306-2.104,4.488-3.793,6.547-4.977
					c2.06-1.185,3.845-1.784,5.369-1.666c1.794,0.136,3.05,0.973,3.777,2.613c0.727,1.635,1.003,3.904,0.827,6.803
					c-0.179,2.9-0.774,6.318-1.802,10.189c-1.029,3.871-2.411,8.021-4.166,12.341c-0.689,1.695-1.38,3.279-2.074,4.753
					c-0.696,1.474-1.236,2.56-1.62,3.271c-5.377-2.604-10.673-5.338-15.882-8.178c-1.606,3.779-2.267,6.851-1.964,9.365
					c0.302,2.504,1.352,4.434,3.156,5.655c1.91,1.288,4.45,1.413,7.583,0.028c-0.681,3.992-1.354,8.051-2.017,12.176
					c-2.332,1.027-4.633,1.369-6.887,1.085C157.941,403.561,155.99,402.657,154.353,401.266z M174.915,369.226
					c1.474-3.315,2.326-6.153,2.576-8.402c0.247-2.254-0.404-3.537-1.956-3.909c-1.208-0.293-2.672,0.327-4.405,1.747
					c-1.734,1.423-3.599,3.756-5.604,6.968C168.633,366.865,171.763,368.064,174.915,369.226z"/>
				<path fill="#FFFFFF" stroke="#000000" stroke-miterlimit="10" d="M181.446,422.048c-1.809-1.238-3.105-2.964-3.888-5.088
					c-0.785-2.127-1.136-4.546-1.061-7.249c0.073-2.705,0.545-5.689,1.403-8.995c0.857-3.307,2.022-6.827,3.483-10.633
					c3.412-8.893,6.781-18.013,10.101-27.345c-1.195-0.269-2.389-0.542-3.58-0.82c1.831-4.877,3.649-9.819,5.453-14.825
					c1.398-0.169,2.794-0.353,4.189-0.552c2.429-6.291,4.826-12.723,7.188-19.288c2.009-0.231,4.016-0.464,6.021-0.697
					c-2.002,6.889-4.029,13.703-6.079,20.439c2.037,0.121,4.075,0.233,6.115,0.339c-1.712,6.172-3.443,12.29-5.191,18.352
					c-2.117-0.409-4.229-0.831-6.335-1.268c-3.151,9.944-6.353,19.703-9.601,29.265c-1.371,4.032-2.039,7.068-1.979,9.192
					c0.057,2.121,0.647,3.5,1.761,4.097c0.461,0.246,0.979,0.35,1.558,0.305c0.577-0.045,1.122-0.17,1.634-0.375
					c-1.261,5.594-2.523,11.194-3.784,16.804c-0.988,0.101-2.115,0.098-3.38-0.021C184.207,423.569,182.862,423.017,181.446,422.048
					z"/>
				<path fill="#FFFFFF" stroke="#000000" stroke-miterlimit="10" d="M215.782,347.581c2.06,0.096,4.12,0.186,6.183,0.27
					c-1.008,5.066-2.02,10.125-3.038,15.177c0.071,0.01,0.142,0.02,0.213,0.029c2.357-5.771,4.489-10.104,6.429-12.9
					c1.94-2.796,3.539-4.236,4.84-4.207c0.719,0.016,1.278,0.183,1.681,0.499c0.401,0.322,0.73,0.795,0.989,1.427
					c-1.944,7.879-3.932,15.665-5.964,23.351c-0.408-0.564-0.802-1.002-1.184-1.312c-0.383-0.308-0.863-0.506-1.44-0.595
					c-1.01-0.156-2.323,0.882-3.966,3.034c-1.644,2.154-3.531,6.102-5.697,11.755c-4.017,16.512-8.146,32.745-12.378,48.676
					c-3.015-1.653-6.003-3.371-8.963-5.149C201.233,401.954,208.68,375.221,215.782,347.581z"/>
				<path fill="#FFFFFF" stroke="#000000" stroke-miterlimit="10" d="M235.516,450.253c-2.873-1.045-5.229-3.61-7.011-7.518
					c-1.785-3.914-2.944-8.949-3.48-15.042c-0.537-6.096-0.428-13.139,0.287-21.18c0.713-8.046,2.087-16.944,4.034-26.879
					c1.947-9.934,4.041-18.78,6.243-26.638c2.202-7.852,4.412-14.559,6.632-20.115c2.22-5.55,4.416-9.944,6.616-13.107
					c2.2-3.164,4.316-4.924,6.406-5.167c2.09-0.243,3.796,1.081,5.18,4.047c1.382,2.962,2.395,7.435,3.058,13.418
					c0.661,5.985,0.946,13.414,0.831,22.255c-0.118,8.844-0.685,18.884-1.791,30.034c-1.12,11.293-2.551,21.322-4.361,30.006
					c-1.809,8.683-3.899,15.894-6.28,21.584c-2.38,5.693-4.995,9.766-7.802,12.223C241.271,450.632,238.389,451.3,235.516,450.253z
					 M239.459,425.091c2.762,0.793,5.533-2.466,8.152-9.939c2.625-7.464,4.729-18.097,6.393-31.732
					c1.646-13.501,2.181-24.144,1.76-31.735c-0.429-7.6-1.727-11.319-3.988-11.286c-2.262,0.03-4.572,3.753-7.056,10.946
					c-2.48,7.204-4.822,17.083-6.973,29.757c-2.173,12.8-3.197,23.001-2.904,30.88C235.13,419.848,236.695,424.297,239.459,425.091z
					"/>
				<path fill="#FFFFFF" stroke="#000000" stroke-miterlimit="10" d="M276.698,460.498c-2.888-0.39-5.658-2.569-8.217-6.446
					c-2.561-3.88-4.617-9.408-6.129-16.494c2.46-6.837,4.828-13.789,7.103-20.835c1.09,4.5,2.437,8.253,4.033,11.227
					c1.594,2.978,3.284,4.575,5.021,4.758c1.948,0.205,3.464-0.908,4.519-3.329c1.056-2.419,1.658-5.77,1.828-10.039
					c0.088-2.207,0.032-4.127-0.165-5.763c-0.198-1.636-0.521-3.092-0.968-4.375c-0.448-1.279-0.993-2.497-1.635-3.643
					c-0.644-1.147-1.345-2.408-2.102-3.784c-1.534-2.752-3.036-5.502-4.506-8.242c-0.871-1.524-1.673-3.482-2.401-5.865
					c-0.729-2.379-1.318-5.14-1.77-8.283c-0.452-3.141-0.71-6.766-0.782-10.877c-0.072-4.111,0.11-8.741,0.524-13.906
					c0.46-5.737,1.185-11.152,2.146-16.27c0.96-5.114,2.078-9.609,3.346-13.486c1.267-3.87,2.631-6.948,4.102-9.199
					c1.471-2.254,2.988-3.431,4.586-3.502c1.786-0.081,3.475,1.471,5.136,4.669c1.66,3.201,3.108,7.911,4.376,14.12
					c-1.363,6.894-2.796,13.777-4.301,20.637c-1.005-3.696-2.004-6.537-3.017-8.524c-1.015-1.985-2.166-2.97-3.483-2.962
					c-1.283,0.009-2.359,1.15-3.251,3.413c-0.891,2.266-1.466,5.432-1.708,9.507c-0.129,2.186-0.109,4.044,0.068,5.579
					c0.176,1.537,0.469,2.932,0.883,4.183c0.414,1.255,0.916,2.439,1.509,3.555c0.592,1.115,1.24,2.346,1.943,3.69
					c1.414,2.54,2.857,5.087,4.328,7.638c2.103,3.603,3.75,8.527,4.942,14.775c1.188,6.249,1.739,14.486,1.558,24.705
					c-0.108,6.074-0.55,11.803-1.364,17.176c-0.814,5.376-1.962,10.062-3.462,14.039c-1.498,3.978-3.335,7.098-5.496,9.328
					C281.73,459.909,279.314,460.853,276.698,460.498z"/>
				<path fill="#FFFFFF" stroke="#000000" stroke-miterlimit="10" d="M301.192,314.441c2.537-0.004,5.074,0.017,7.612,0.062
					c2.066,21.497,4.439,42.942,7.151,64.253c0.524,4.264,1.046,8.632,1.566,13.105c0.52,4.475,1.07,8.904,1.653,13.289
					c0.079-0.005,0.158-0.009,0.237-0.014c0.209-4.433,0.375-8.894,0.503-13.39c0.126-4.493,0.277-8.876,0.452-13.146
					c0.926-21.346,1.587-42.569,2.02-63.633c2.527,0.128,5.056,0.279,7.588,0.451c3.64,46.835,7.608,93.455,11.901,139.81
					c-2.977,0.639-5.963,1.209-8.957,1.707c-1.231-17.284-2.427-34.588-3.589-51.913c-0.233-3.48-0.45-7.326-0.652-11.538
					c-0.202-4.211-0.387-8.461-0.559-12.747c-0.17-4.283-0.338-8.497-0.502-12.634c-0.163-4.138-0.307-7.949-0.43-11.432
					c-0.071,0.002-0.141,0.003-0.212,0.005c-0.199,11.264-0.463,22.574-0.798,33.927c-0.687,18.247-1.576,36.613-2.692,55.069
					c-1.767,0.191-3.536,0.357-5.307,0.502c-2.724-18.171-5.173-36.477-7.368-54.854c-1.253-11.443-2.417-22.909-3.497-34.39
					c-0.071,0-0.141,0-0.212,0.001c0.155,3.557,0.317,7.447,0.487,11.669c0.172,4.222,0.347,8.518,0.529,12.886
					c0.181,4.369,0.346,8.701,0.497,12.995c0.149,4.295,0.256,8.218,0.317,11.773c0.305,17.7,0.62,35.398,0.944,53.095
					c-2.975,0.129-5.951,0.186-8.927,0.174C301.036,411.161,301.118,362.801,301.192,314.441z"/>
				<path fill="#FFFFFF" stroke="#000000" stroke-miterlimit="10" d="M370.284,449.409c-2.691,1.014-5.475,0.506-8.278-1.616
					c-2.804-2.121-5.472-5.837-7.956-11.16c-2.486-5.323-4.701-12.273-6.645-20.812c-1.946-8.536-3.48-18.62-4.673-30.144
					c-1.178-11.385-1.739-21.603-1.785-30.552c-0.044-8.947,0.305-16.478,1.022-22.565c0.72-6.086,1.77-10.62,3.178-13.622
					c1.409-3.002,3.064-4.342,5.03-4.107c1.998,0.239,4.03,2.181,6.163,5.702c2.132,3.522,4.124,7.498,5.971,11.921
					c-0.255,5.973-0.555,12.042-0.903,18.207c-1.357-2.963-2.646-5.413-3.876-7.328c-1.232-1.91-2.427-2.895-3.61-2.909
					c-1.115-0.015-2.033,0.947-2.773,2.909c-0.74,1.965-1.245,4.795-1.518,8.505c-0.274,3.708-0.305,8.257-0.082,13.638
					c0.221,5.378,0.743,11.447,1.594,18.159c1.75,13.841,3.974,24.394,6.757,31.484c2.776,7.099,5.729,10.119,8.69,9.235
					c1.643-0.488,2.921-2.088,3.808-4.735c0.888-2.645,1.508-5.766,1.86-9.354c2.609,5.413,5.284,10.669,8.023,15.749
					C379.313,439.14,375.895,447.277,370.284,449.409z"/>
				<path fill="#FFFFFF" stroke="#000000" stroke-miterlimit="10" d="M370.099,348.26c2.066-0.064,4.13-0.134,6.194-0.208
					c0.995,3.841,2.001,7.658,3.017,11.451c0.071-0.007,0.141-0.015,0.212-0.022c0.279-3.8,0.717-7.046,1.321-9.741
					c0.604-2.697,1.729-4.027,3.405-4.074c1.811-0.052,3.574,1.119,5.318,3.418c1.743,2.305,3.541,5.567,5.407,9.751
					c0.141-3.795,0.464-7.013,0.973-9.674c0.511-2.658,1.607-3.972,3.312-4.046c2.725-0.114,5.57,2.464,8.61,7.369
					c3.037,4.922,6.125,11.509,9.252,19.868c5.175,13.851,10.457,27.179,15.825,39.936c-2.796,2.065-5.625,4.084-8.484,6.049
					c-4.871-13.139-9.653-26.726-14.334-40.724c-1.749-5.23-3.195-8.79-4.348-10.654c-1.154-1.859-2.29-2.7-3.424-2.474
					c-1.311,0.263-2.067,2.995-2.328,8.448c5.133,17.529,10.414,34.579,15.824,51.101c-2.92,1.856-5.871,3.656-8.849,5.393
					c-4.426-15.318-8.749-30.975-12.962-46.945c-1.575-5.967-2.903-10.029-3.997-12.175c-1.095-2.141-2.208-3.138-3.354-2.948
					c-1.363,0.227-2.201,3.218-2.589,9.194c4.521,19.638,9.193,38.926,14.007,57.827c-3.033,1.609-6.092,3.153-9.175,4.625
					C382.337,409.426,376.052,379.144,370.099,348.26z"/>
				<path fill="#FFFFFF" stroke="#000000" stroke-miterlimit="10" d="M403.943,318.215c2.321,0.506,4.647,1.009,6.979,1.508
					c6.792,17.208,13.777,33.486,20.898,48.702c0.07-0.027,0.14-0.054,0.211-0.081c-0.74-8.49-1.544-16.434-2.392-23.855
					c2.706-0.29,5.405-0.602,8.098-0.937c0.761,6.899,1.486,14.406,2.152,22.553c8.513,8.512,17.157,14.88,25.74,18.885
					c-2.729,2.533-5.496,5.043-8.304,7.52c-5.521-3.776-11.033-8.498-16.491-14.101c0.166,3.078,0.322,6.239,0.468,9.486
					c2.194,4.327,4.398,8.55,6.611,12.667c-2.603,2.155-5.238,4.277-7.904,6.359C427.52,380.369,415.409,350.586,403.943,318.215z"
					/>
				<path fill="#FFFFFF" stroke="#000000" stroke-miterlimit="10" d="M463.197,377.042c-0.018-4.399-0.093-8.2-0.214-11.532
					c-0.123-3.33-0.378-6.189-0.757-8.697c-0.381-2.507-0.921-4.648-1.614-6.528c-0.695-1.879-1.666-3.521-2.914-5.037
					c-1.724-2.092-3.434-3.662-5.13-4.729c-1.697-1.062-3.244-1.583-4.643-1.449c-1.167,0.111-1.845,0.724-2.034,1.907
					c-0.19,1.182-0.213,2.577-0.068,4.192c-2.786-1.978-5.566-4.179-8.334-6.595c-0.236-3.228-0.006-5.517,0.698-6.958
					c0.702-1.447,2.179-1.986,4.435-1.799c1.558,0.127,3.242,0.629,5.048,1.412c1.807,0.784,3.661,1.788,5.559,2.959
					c1.899,1.175,3.775,2.485,5.625,3.933c1.851,1.451,3.618,3.013,5.299,4.735c1.463,1.499,2.671,3.048,3.627,4.748
					c0.956,1.701,1.726,3.491,2.304,5.444c0.579,1.955,1.027,4.042,1.341,6.317c0.316,2.275,0.561,4.654,0.735,7.151
					c0.683-0.734,1.464-1.522,2.341-2.368c0.877-0.844,1.688-1.557,2.438-2.149c2.084-1.644,4.149-3.295,6.195-4.95
					c2.224,1.527,4.435,2.913,6.631,4.154c-7.018,7.258-14.319,14.577-21.931,21.73
					C466.288,381.029,464.742,379.065,463.197,377.042z"/>
			</g>
		</g>
	</g>
	<g>
		<path fill="#FFFFFF" stroke="#000000" stroke-miterlimit="10" d="M265.646,156.263c-1.446,0-2.766-0.47-3.96-1.406
			c-1.194-0.937-2.218-2.284-3.073-4.04c-0.854-1.755-1.518-3.89-1.988-6.403c-0.471-2.513-0.707-5.365-0.707-8.557
			c0-3.191,0.235-6.034,0.707-8.528c0.471-2.493,1.134-4.587,1.988-6.283c0.854-1.695,1.878-2.992,3.073-3.89
			c1.194-0.898,2.514-1.347,3.96-1.347s2.766,0.449,3.96,1.347c1.194,0.897,2.218,2.205,3.073,3.919
			c0.854,1.716,1.517,3.821,1.988,6.313c0.471,2.494,0.707,5.316,0.707,8.468c0,3.192-0.236,6.044-0.707,8.557
			c-0.471,2.514-1.134,4.648-1.988,6.403c-0.854,1.756-1.879,3.103-3.073,4.04C268.412,155.794,267.092,156.263,265.646,156.263z
			 M265.646,148.663c1.468,0,2.629-1.146,3.483-3.441c0.854-2.294,1.282-5.416,1.282-9.365c0-3.91-0.427-6.961-1.282-9.156
			c-0.854-2.193-2.016-3.291-3.483-3.291c-1.468,0-2.629,1.098-3.483,3.291c-0.854,2.195-1.282,5.247-1.282,9.156
			c0,3.949,0.427,7.071,1.282,9.365C263.017,147.517,264.178,148.663,265.646,148.663z"/>
		<path fill="#FFFFFF" stroke="#000000" stroke-miterlimit="10" d="M285.955,156.263c-1.402,0-2.799-0.47-4.19-1.406
			c-1.392-0.937-2.635-2.343-3.73-4.219l2.76-6.044c0.767,1.197,1.616,2.175,2.547,2.932c0.931,0.758,1.846,1.137,2.744,1.137
			c1.008,0,1.758-0.338,2.251-1.018c0.493-0.678,0.739-1.595,0.739-2.752c0-0.599-0.071-1.117-0.214-1.556
			c-0.143-0.438-0.351-0.827-0.624-1.167c-0.274-0.338-0.603-0.658-0.986-0.957c-0.384-0.299-0.805-0.628-1.266-0.988l-2.793-2.154
			c-0.548-0.398-1.079-0.917-1.594-1.556c-0.515-0.638-0.975-1.386-1.38-2.244c-0.405-0.857-0.729-1.855-0.969-2.992
			c-0.241-1.137-0.361-2.424-0.361-3.86c0-1.595,0.186-3.102,0.559-4.518c0.372-1.416,0.898-2.653,1.577-3.71
			c0.679-1.056,1.484-1.885,2.416-2.483c0.931-0.598,1.956-0.897,3.073-0.897c1.249,0,2.481,0.439,3.697,1.316
			c1.216,0.878,2.284,2.154,3.204,3.83l-2.465,5.565c-0.701-0.997-1.402-1.766-2.103-2.304c-0.702-0.539-1.479-0.808-2.333-0.808
			c-0.833,0-1.495,0.31-1.988,0.927c-0.493,0.619-0.739,1.487-0.739,2.604c0,0.598,0.082,1.107,0.247,1.526
			c0.164,0.419,0.394,0.798,0.69,1.137c0.296,0.34,0.641,0.659,1.035,0.958c0.395,0.299,0.822,0.628,1.282,0.988l2.761,2.035
			c1.314,0.957,2.35,2.274,3.105,3.949c0.756,1.676,1.134,3.89,1.134,6.643c0,1.636-0.181,3.182-0.542,4.638
			c-0.361,1.457-0.887,2.733-1.577,3.83c-0.69,1.098-1.54,1.975-2.547,2.633C288.365,155.934,287.226,156.263,285.955,156.263z"/>
		<path fill="#FFFFFF" stroke="#000000" stroke-miterlimit="10" d="M297.688,116.528h5.291l3.451,17.354
			c0.219,1.158,0.427,2.344,0.624,3.561c0.197,1.218,0.405,2.424,0.624,3.621h0.132c0.219-1.197,0.422-2.403,0.608-3.621
			c0.186-1.216,0.389-2.403,0.607-3.561l3.385-17.354h5.259v39.017h-4.404v-14.302c0-0.958,0.021-2.014,0.066-3.172
			c0.043-1.157,0.099-2.323,0.164-3.5c0.065-1.176,0.132-2.334,0.197-3.471c0.065-1.137,0.131-2.184,0.197-3.142h-0.132
			l-1.741,9.275l-3.057,14.901h-2.662l-3.057-14.901l-1.708-9.275h-0.132c0.065,0.958,0.132,2.005,0.197,3.142
			c0.065,1.137,0.131,2.295,0.197,3.471c0.065,1.177,0.12,2.344,0.164,3.5c0.044,1.158,0.065,2.214,0.065,3.172v14.302h-4.338
			V116.528z"/>
		<path fill="#FFFFFF" stroke="#000000" stroke-miterlimit="10" d="M331.669,156.263c-1.359,0-2.641-0.429-3.846-1.287
			s-2.262-2.125-3.171-3.8c-0.909-1.675-1.627-3.76-2.152-6.253c-0.526-2.493-0.789-5.375-0.789-8.647
			c0-3.232,0.273-6.113,0.821-8.647c0.548-2.533,1.282-4.677,2.202-6.433c0.92-1.755,1.993-3.091,3.221-4.009
			c1.227-0.917,2.52-1.376,3.878-1.376c1.38,0,2.617,0.509,3.714,1.526c1.095,1.018,2.004,2.205,2.728,3.561l-2.563,5.625
			c-0.548-0.917-1.123-1.666-1.726-2.244c-0.603-0.578-1.287-0.868-2.054-0.868c-0.724,0-1.408,0.29-2.054,0.868
			c-0.646,0.579-1.206,1.406-1.677,2.483s-0.844,2.394-1.117,3.95c-0.274,1.556-0.411,3.312-0.411,5.266
			c0,4.03,0.472,7.151,1.414,9.365c0.941,2.214,2.201,3.321,3.779,3.321c0.876,0,1.659-0.349,2.35-1.047
			c0.689-0.697,1.298-1.565,1.823-2.603l2.563,5.505C336.806,154.348,334.495,156.263,331.669,156.263z"/>
	</g>
</g>
</svg>
